<mxfile host="65bd71144e">
    <diagram id="YMIsLzz3To4ozqXNxzte" name="Page-1">
        <mxGraphModel dx="1869" dy="999" grid="0" gridSize="10" guides="1" tooltips="1" connect="1" arrows="1" fold="1" page="0" pageScale="1" pageWidth="850" pageHeight="1100" math="0" shadow="0">
            <root>
                <mxCell id="0"/>
                <mxCell id="1" parent="0"/>
                <mxCell id="111" value="" style="rounded=0;whiteSpace=wrap;html=1;" parent="1" vertex="1">
                    <mxGeometry x="-59" y="-140" width="1362" height="1185" as="geometry"/>
                </mxCell>
                <mxCell id="114" value="" style="shape=image;verticalLabelPosition=bottom;labelBackgroundColor=#CCFFFF;verticalAlign=top;aspect=fixed;imageAspect=0;image=data:image/png,iVBORw0KGgoAAAANSUhEUgAAAQsAAADjCAYAAACSNTEJAAAAAXNSR0IArs4c6QAAAARnQU1BAACxjwv8YQUAAAAJcEhZcwAADsMAAA7DAcdvqGQAAC+ySURBVHhe7d15XFV1/sfx1w1ZRDaRRUAUFVFQEcV9qVDLdHRKf5U1bVY62TKNzphTWZPT5OTYou01WtnqaJZNOppmkiuKkOKCiqKMyCaLLMp2JX5/3Hu55xzuxYOBXPHzfDzu4+H3fM9dzuWe9/me7/d7joba2tpahBDiEq7TLhBCCFskLIQQukhYCCF0kbAQQugiYSGE0EXCQgihi4SFEEIXCQshhC4SFkIIXSQshBC6SFgIIXSRsBBC6CJhIYTQRcJCCKGLhIUQQhcJCyGELhIWQghdJCyEELpIWAghdJGwEELoImEhhNBFwkIIoYuEhRBCFwkLIYQuEhZCCF0kLESrVLrufgwGg+nhNpdt2hUcjfEs2/82ADeDAcPseG2tQ5CwEK3S/m2rrIU7rydGWelgjGeTeHNSONfP30eVttKBSFiIVugAid9Zd7vBwyPwUtU7jqJ9bzIpfBB/3FimrXI4BvmPkYVoCUXse/N33PDHjdSLiVlbqF0cp13a4qRlIVolY1k+ubm55ObmU2bU1rawon0smxrDrTtvZ0teNWc+H69dwyFJWIjWI/FvBJg7NV28AggKCiIoaD67teu1qHJSVz7D6kH/Yf/K6QwMcCYkuKd2JYckYSFaj8HPkp7wIqpd77briXZWLmhp7kQ9+j3fz+mPr7bKwUlYiFbEGU//IPwUS3qOiCRQURaXT8JCtC5ZaSTVFVz57eBoVbW4fBIWolU5kPidYq7CnVyve4JFOstGmidxXebDQedSNRkJC9GKZJC8/pi1GBdHH0edYHEVkrAQrUfpIeIVR/eeE2IJU9Y3qDvTd9RSW3v5DwecGtGkJCxE67F/G9ZJ3q6Mj41UVYtfR8JCtBrq/orxDI1yqDHTq56EhWgl8jiyU9Ff0XMEkTJm2qQkLEQrcZ6yfGX5IjXGSrJ3v8mtA+YSX6Sscyx5ZzPUC6ov4mgz1JGwEK1HZ7oPcrUWjz3DAJe2hAyby+HIfgS6K9d1DMayfDJSvmTeU9+qKz78C/O+P0ruuUr18hYmV52K1qMogX9MuZUXt+ZThSchN0/jnwue486BAThW70U8sw2jWaJdbMesLY4x0iJh0VpV5LFh/XG+OHgdv5s9nAne2hVsKWTFu8n80DaAe2+IYnQ3F+0K4homYdHq1JARv4eZm4op8e3AX8aFMy66A221q9lRkZXOyrUneedkDd1iu7NkSg+CHOuwLFqIhEWrUkbSV8k8ureCyEGRvH5HmOqiKpWDSfzms7OcAcCdOY/dyH11M5hqyNm+lwfXF1ESGMyHj8cgo5BCOjhbkWPrknl0bzneUd0bDgog/X/nzUEBeHvQRzXV0YmgUUP5fFJ72mVn8+QXaRQoq8U1ScLCwR1bu4V+c9ebHh8dtT+kduYgi3eWU93Oj7/fE9FgUEA5R7LKrcUgD/ooq838hvfjmSgn8lNPsXh7vZu/iWuMhIVDK+Tnk9bhs2EhHe306pfz4+ZsEmpg4ODuDLO9koI7Ex+ZQMoi8+OhXnZe150xg/3oSg3rdhxjn92kEtcCCQtHlprByixLwY2h3X3U9Ra56XyVWgNO3vzf8A7aWtsqzpOVc46snHMUVmgrFaLCmBoCnMtnxS5Fa0Rcc5qng9NYzJ7NqXyQVMbBshqqnV246fooXh4XjDM15Px8mPe25bE1z0hxjQGfQD9evHcANwQ6aV/JrJoTu1L5NLGAnfnVFBgBDPh4uhIV4UtMSQHLT1wkaFgk30zuYn3O1hRe23OO/QUXKXdyYtignrw0xXQub8w7xer1/2PZiXIKjODi5snTM0bxf6Hqd4Yacg4f4T87ClibU8mZ8l8AcHFzpm/XQB77bTQDLftno7fbl3l3DOTmzvW3uyIrnQ9XprE019afx43Zvx/NtHBTKWfjNm758Tx0D2PrI1HYiRTIPcjM1zNJUC1048npo3k4QrVQ5djaLdy5vRKXqHB2TYuw0woRrV2Th4Xx9FEWfnmK1UXal3VnzmOxdE1IZPa+Kqo1tQQEs2pOjPr+iYAx7zhvfHyCz4pqwcmV22/pw5wbAiH1Zx5ensthxbpjxt/I63HuUJjB8pVpLM64qKgFcOK+qeOY5pTEn1aeJaVGUeXmx/svDmaYYpHqdere24/irXu467/FFAMunUP5+om+BF3udrcP5LNnYqm7n5Mxjfl/PcEa5Werpz2vLxrGGABq2PTRRp46Cj2Hx7DqtmDtyioVWQf4yxtn2GpZYGu7tZITuWFlAcV61lVJY/7cE6zRLtZNHYqiZTX5aUhJ0XmynH1ZOHMsKdM7Knb+i/zwTQKPH4Cptw1h96JxrBjuZn3i2QJ+OGgtAlCYxoL3j5uCAicmThjM8zcE0hZoGxXMzQHKlT0YFmma02ssLGN/RVtm3zWcpAXdmFi3Tg3nMvfzp7VVTJkxlqTHghloqQrxQHVBc2Eaf3/3iDlwlO/tRFCIOyHm1apPn+d4o7Z7FH9TjjycKyNFeWmAcwTzX56geQ3oNKiPtY+hLigAskjLMf2rR4dLXznVNsRNfaNY7Xbb0sGFLgCV5ZzQXMYgrh1NHhZ+MQN5/89DGN/NBa67jjZ1NdWk5LbhyQdvZM7wDrTFiagoH8UOUU2BqsO9jHWr01lzwVwMCeKRUZ7KFdS83QnvaPqnc0Rflvx5FNMG+GiazAY27S1m9NSh3NbNBecwdyxnHT0DfRTNd9N7ry4ztxI0720sqqKuK8HJwHWX2u58F568b5R5uz3xVF2n0Ib27ZVlk5xT57FeQ+lEXLfOqnqrSgpKAJxo717/dKaejHJOKor9Qvzsn7ZYhLnTDYAKMszBpE8E8+sC7nIe0qpwJE0eFkrGnHLVaULXQeHcH6H4QVf9giUL6klNY1m6pUlvYFxMOKrdxVjM8bPWok83X/or6y2Onmd/XaGWkJhu3FP3Gaw/ZmXz3Zh8hCX23tuYzRc7iig2F/2jAxhpqTMrzjyv2u7eQyK4P8oydbqYovOKSm83QupNxS4nOUO5kifR9u47W7fzO+NX73XqKz51npS6kguDu6iaZ5dQS432LEtcM5o1LJLOKJsK7Zg6rLP6SF9mtE4MwoCTwVqVkFLAqbqSJ9fHaC4bVIUAxHY0Nys0VJOPcGFsL81nsCEp7RzWq509uT7GldKzZ0nevJffL0xhcW4tODnRN7YHn93erd7rHclVRqAHk4cGW9cxnuVwXbPEXsjlclSxDp096at9E4uLoO2Zaci+TMXfxMmD3n2VtVcn7Y1zW+ujpTVjWJzlRI6il66zLzd2UtZD6lnlmF07enW1/Dub1Ezlc72J1Rw1j2WUKkLA2l+hppl8pGvnOE3ySWXvYinzFmxkzNsp/HVPGU4hfsye2Jv/PDOWz6faum5C89kDvIhW5tiBYuIV1TZD7mAR8Yqrk3t38SdIWa/UBsUpz6Wc5nCmomkQ5mUjqISwrfnCoqSAfbnWYv0ffDGHzyj2CNVOdZ5Mxfxinw7tNM/NJeGY4rl+HvS2sc/VO0Lr2jksfQAmvUcNIGXRBPa+eBP/nTea9x4axLTruxDmZad/ILeQvcrPHuKl6qjcd7K07hTGXsjlZJerWkPDw2xunEldf0IVmaqbv9iQUUSictuCfS/dX6Gibv1dWhrzLbNPL+uxheUntK9Zn/bGua310dKaLyxOnCe5ruDEgGDND/7Mab4/bS0O7B1q3ak0nXAhHuodyph8ms+V/RWhPkQpV7BIKyZRkSnqTkw7TpSTpih29fFXlC7NeFK53dqWw1kOZSoGT7WtDgBqOJil7K9wJ6KXoliPm7mvopbKiw2Ot2r6K2z8Teyp+3u0JcxuE0e0ds0WFuk55YojaP3OtwOJ+db/OaqdL/cqZx66OVH/eGtWmMaCdQWKPgWI9LX9v0aqRxQM9A1seA4CAF3cqDsbAo4X5ilKZhVnWPH+Vl5NrH+9xKGsC4q5FO7076rckmLSFa0tl4B29eaVQD7ZylvABbjTxXyqY0zbz8zXkkhQtA7AjzDzhSD7c5XNqPrUfSnt6KV3pCGnkiMAbu6E67+3voyGtDLNFBaavgKtMwd5d6/lPsxtuP3maOKUYdKxHeGKKRjHswvIMdZQevwIf1+azn9d3VWXTLs4OWEszWHDp1t4aG22+WKrGlJzlDuHJ/1tNj80nDsSG2Ztax9LOcW3J027v7G0gOTNe5j60gEWnqwg9WyZ5sKuXFL+p2g5aHcuTYvJ3ek6jBWF7Fy7nanLj5Jj69qLqmqKK2ooPX6IeSuyOdHBix6q4HUnNswDgDN5JTQ0sllepWx51HLxovl1F27jszT7rZLUvHKqAZdQz0vPyRCtVjOFhaavgCoOZBRjxLzDf36GhBrA2Z3HfjeM54dp2xFdGBGpmKmQfppb5m1k1NJTrHcL4L0Z3RiheMrWTdsZ+NI+nj4G0f6WiiyOZCnO8/zc6aZjaBF8mDQ2iH6WLokLJbzw/mb6zV3PwJcSeWhTIUdx465JsXwwUTHKAVBSxAHF6RFhXtZJX+ZytCIEi1OOMfCFPTy2vYKAQA98nAH8CQ9S9IeUFPD7FzYyaulptnsH86aNK0qDevuY3ud0CcmqVodapw6KN6eMF/5pet0tTm3pbPe7KSTlf5WAgbiILpc+jROtVvOExYlSflbda7SWHzftYuDcjYxa+j9+uq4dd40K5+vnbuSRGFsTrZwYdnt/XunbFh8nzNeBuHPXzX355vFYBnbozF03+dPXzdQCcHFzZXhsV1b+5QZmDTVPxNJ05rl09LTdr2GDc0QMHz7ag9mR7gSZ3wOuw8/Pw/y5R/PMKP96Q6aklrJdUewX4KtZpxvTJvoT627+2p3b0DM8kMUzb+St8Z3Md7NyYuSU3jwd7mrednB3d+fWuEi+sXcTmk7h/C7KCShlza5CbW2dnrf04rlwF/MpngEfXw8e/E0sW54aZP+6HMvFbO06MHm4NtTFtaTJrw0BKI7fwQ0bSs0lA7dPHs/z+i8oEJfjxH7u/zCbFDc/3n92sI7L1PUoY9NHu3jq6C+MGT+S1+NsBXvrZyw7zs9r1/PeJ++xY18G6fnmU2hXf7r3G8lDT/+d6RN7E9Ak37njapaWRb2ONGWPoWge4THMG+GOy4UCnm+iO1sV7DrEoqM1+Ed159lrMShKE3lnSh86eEUw9J5ZbAl9mQ3pZdRWl3Lg8zsJrconPXEN86b0IXzSx6TZ6nNqRZohLHI5lqXoLFNcsyGaV8+JsSzu70pJajp/+irjVwRGDTnbd3Pv2nNcCLbdT3JNyD/AijWHKQPwn8Unr0+mh6czOHvS9573eGOqddWyjQ8xa1XDo1FXu6YPC20nn51btonm4MnIu0ex4mZvzv6cyqRX9vDtgUIaureNVkVWOsvf38Jv1xbjHdPDfj/JNcb/8buJ81Iu8SV67AjlAjYkKWfotD5NHxaqyVhAWSWZrbx55lhcCB87nLXP9Oevnav49JtjxDcwQqJWzLq16Wxz9eefM0ez0uZ09mvTLbENzoy7JjR5B2fqt1u4e5fmv11r58+yFwYxSL1UiKta4t8CGDLfOj1wxNIT7JjeXbVOa9LkYSHENcGYwHMhw1lgyQrX+1ib/SkTbU8mbhWa/jREiGtA+idPWYOCUGZtWNKqgwIJCyEaz5i2jBlP7DSXXIlbuplFca08KSQshGgkYxofPjSD+CoAV7o/tYHV06+NO55LWAihWxHxc8fy6E4AV/rPjydxUZz6BsitmHRwCqGLkbRl44ieEU8VrsS9ksDqOf2vmaBAWhZC6FMUP5ex5qDoPz/+mgsKpGUhhA7pHzO690PEV0HorC3sX3ztnHooSctCiIYY01g241Hiq8A1bimbbfVRVGaz7vEADIbH+aEVz1aWloUQDUj/eDS9H4rHcl+3hs1iS+1i4rSLWwlpWQhhT+kGXn5Ub1AA/j600y5rRSQshLAneRMf6k4KICIExW2nWx05DRFC6CItCyGELhIWQghdJCyEELpIWAghdJGwEELoImEhhNBFwkIIoYuEhRBCFwkLIYQuEhZCCF0kLIQQukhYCCF0kbAQQugiYSGE0EXCQgihi4SFEEIXCQshhC4SFkIIXSQshBC6SFgIIXSRsBBC6CJhIYTQRcJCCKGLhIUQQhcJCyGELhIWQghdJCyEELpIWAghdJGwEELoImEhhNBFwkIIoYuEhRBCFwkLIYQuEhZCCF0kLIQQukhYCCF0kbAQQuhyRcLCWFpCVs458+M8FdoVrkbGYvZs2MOj/4jng1RtpT017FixmSlv7+Xbw8UYtdVCODBDbW1trXZhU0lf9xNTtpWrF7r58f6LgxmmXtqkKk6msXJrNl/9r5Iz5b+YFjq34aYbBvDqzX7a1RutYH8yc7/K46CbJ9PHhHP3oCC8nLVr2WYszWHzf47w4sEqvLuFsOiBaKLbatcSwvE0a8ui+8ThrBvrhYtyYZgXA5XlJlVD6sbtTHr/BIuPVBETN5Skv4QxxgkwXkdY0K8Nihoy4ndy15d5nA4L46unR/HIcHtBcZq3F6yn31zT4/51ZwFw9gpi/H2j2TItiODMMzz86m5+LNQ+14EZyzi+50vemDaOXuEBuBkMGAwGDAY3AsKHMOUfazh8Vkeb6cCr9Kp77mg+ztCu4GgqSf1iKp0NBgwjl5Gurb4GNGtYgAuhHVxwVywZFtIRm/tWEyhO2MuTP5aRD+Ddgdtv8MG5gy/RHQDcieilfUbjFCfsZfqGEko6BvPmtCjCGtqQjCISSywFFwZ3CVBVt42K4YMHgoksL+LpT/aTqmP/almlJL4zhT4dvIgYeg+ztoTy8oZ0ymqrKT3wOXeGVpGfnsiaeVPoEz6Jj9Ma3qCM5PUcsxR6TiA2TF3fWOnLRmIwGJgdr61pApWnWPNYHwbcu4pMbd01pJnDAnIKKimuK7nQJ9hHVd90CtmQWGQKCsAl1Jv+AHRk2pwJpCwazs02dm7jrgQGmY/+/Rb9jN3uB+NJlm0qIt/Jg7l3xhBl47WUik+dJ6WuZDuonCNimDfcjercbF76b7aD92Hkc2DFGg6XAfgz65PXmdzDE2ec8ex7D++9MdW6atlGHpq1iizFs9VKORSv2KvH9CNSWe1AjJnreKxPJFPeS6dKW3mNaeawqCE154K16NSOSBs7TZM4kclaxa9zVGiIstaOGvacKqXaXPIJ9SFKs4bFse8z+OwC+PQJ4bZO2tr6fOJGkrJogvlhO6gAel4fxDgnOLznJBuvltMR/8e5O85Ltcg3eiwjlAs2JJGmLKt4MfHTWmprzY93bmq21ublM5K57jEie0zivfRrPSZMmjkssjiSpeg/DfG45BH5cuWkl3K4ruRCNz/lyY8dJWl8d6jGXDAQ16WLZgWLk6zdWwm48rv+3XX+sKsptIwAFVniyAbvCH7bxwlqSlm29Yy21jHdEsuvzvzKc+Tm5pKbm8u5Sm1lCzNm8sPcIfT+qwdvH6mgetc8/LXrXIOaNyxySzhUd94OnQK9CVLWaxjzMvn26x08tGATwyynBs9s5JYlu1ixv0y7ep2KrDQ+/fm8Ykk1Sz9r+NTCWJrDt6sy2WjJCmpZ8+3Gug7J+bsUKycXsLYS8PZmsL2mBwDFfPW2pVNzM6MXJzBhcQKztxVoV1RwYkhXUyfwqZMF1vN4h9Od6TvMLYFPJ6JuVwCFWeqWxIjedFaWAfJWMtnSqdnWl6CgIIKCbmXlae2KLSsv/mX+WvQih/cs4paubjgHhBGhXeka1KxhYTxeRkJdycDQTvV+PmZlJK3dzvjXDvLCnjKKQ0P57G8TSPpzVyY615CTXczClfv4qt6BN5flr65n6Bsn+PKcts4swENzamF6zsCX9vHC8YuqGis3whT9kamZ5039LkEe9FGsVZ8Pdzw8hGdVnXVODA4NVi6ox7mbB7EAZ0s5kKutbYhpWywBdzkPVSheNiMJ371T118Ertz39BS6q9YBAqeyIutLFL0b4D+BAQ62Jwbe/C4JyyYSqq8Jec1o1rBIOqNsDbSjV1dFsU4ZP366m0e3m0YxfHp15V/3RxLeFpwD29PDcgirOc/hekcgc+flvDDGKJb69O9l7S+Ypv0lmp+zoBsTlYu7h7G1ro9hNNPCLRXlnMwztZN7+npd+hSkbQfUZ0Dt6FX3WnZ0dCPECeACR09pK68C6Z/w1AJrVITO2sCSib6qVSzcgjuqW5dNcUojrohmDIuznMipa+ODnwe9OyrrTQriU3j6kNHcydiOmTf3om42hPECuaWWggEng+XfGqmlbFcUYzvaeCOtA6XsUBSHhQVje5ymlAJz5vm21dEPwlmyixTFjh5EeivKNnkS2gGgluOFpvkY+lhGei7/MX+49jUbyZjGshlPsNNcdI1byuZFcdiOCiAjQzFKBHFxfeqf0giH1HxhUVLAPkWT2qWjZ/2RBuNJlm+zjka49AhgfN1IQw2p32fytaXzq10HxtqZzZWaV173GuBG75BL79T7TpYqhnTdGNTVdlRAGZnmUYqOnvbWUdBsd6dQ3/rN8QZcrDXPOL0qGEn78CFmxJtGC1y7P8WG1dOJaKD5VXooHuugaU8mNGKCRfxsyySu+o/wGaa4WjK6fp3lMXLZtTiVquk0X1icOE+yomhzKPNAAWsVI6ujwrvQrrSE9AOHWPLmFh7YXk41BnwC/XlzZizDbP4IracJADi500175lFPMSfyFCMUbh5E2X1OLTWKBtIlqVo5DfXTXP2K4ucy9lHTTurafz7xiYuIs9ukMNm/bZW14PpbBkcra4Uja7awOJZt7hQEwI3o0PpHe/XRHX7c8BMDX97N42tz2XVdO343qisfPXEjm/88iBsCnRRrKmWxTzlVOMzLPBmrASXZJCj6P1y6+TQwBd2Ak723tmHfmfOKVo4n/es1p1oHY9oybh+/hEzANe4VEja/wLBLBAUcIPE7xZyFO68nRll9CXGLFXMzNI8TS02zPGZtqV9neeyY3pg2ntBqprAo53i24mjv5kFPG518RRcUR/eAYFYtmkDKy+P4ft5YVj0xnNmTIont3LbhTsW0Mg4qjvw9A33s9D0oaFs9XTo18B6W/gQ4WXSp/oSzHMpUbpMHPS7ZX6HWxtCYP0kLjYYUxTN37Aziq8wtitVz6H/JoAAyklmvGBsecX2k9FdcRRrzy2yEXI4q5/qGeNiYzptLpnL6ga8b3RRFvYqzyhVzEwz0DWx4mBLlUCjo6OPwws/T9K/Ki/aGWs00/RU+IV70VNbbZekXMdCjg/oaEseTzse3j2dJJhA6iw26WhQm6v4Kf26KliP91aR5wiKjlAOKhoXto70/wcofWUE5xxVFk2oObNjO71ekY29a075MPcOzajnFyimDbQmz9FcUpvH317bzzQlFNe6E+Jqumz2WV6w6bapH02LRNSoDkHGB4zXo/vxWV3o0xEjashk8Gl8FrnEs3Wyrj6KS7HWPE2Aw8PgP6qtdjiZ/ryjdQqyMmV5VmicsLoLyGHyhqhpjRSE7v9nGlE/TzDu+E31DPa2XrxcUsHxznunGOMYKMg4c4uVXtnBffBkH88qwfdVzNidzFdPJ7QzPNuwi5/JqqMhK5+1P0vnO4Ekvzazv/t28TGGXdZ4j6iq1qhpVmFysqTHNFP3oR2aus3+hmDGz3DSc2L4dPRv9+a+g9M+Z+US86YKqqnhm9HSpN+JgMLQlZNK75AMubdQndxeKrXMxoBrjRSNlx9fw2IBbL3mVaovSzk41XqQxfd6tRfOERRd3IhSdgmeSUxn4wh4e21tFZGh7LKfxQTd25/GOlskTF9m4KZmhc9fTb148t35+mn/nQ6++3VjxuJ2rPEuKOaxoctgcnrWhR2A7RamMv7+2kaFvHOOTC+1Z+ICN94ruwHg3oLKU5IOaOqWAtvRWFLdu2m6aKZpuoJfda1Vq2HPa1Drq2jMQxx0cKGXDy49iHiXVwR8f5dcMdO6tvNRsJVM6uOAVMYXPXYcQXr/p2fIqz5F79CdefPplxexUIPEfPL9sNxn5ZXYPAK1R84SFcwRPTPanr5s5CJzbEBvZiX/NGs2COH9rZ6JzMNP+MJC3RvkQ6+lU18pwd3djeN9gFs8czcr7etm/b4R2Mlagvst9Oo/tx5ux7viZX9fFzZXhsV1ZMWcoY8ydmSrO3Zk8yA2o5qsD6fZ/IOF9eW6MF100r/v1c6OZNdTHdieq5WI2Jw/uGazjctYWk8ymD3UnBRBBiOa77P7AR/x7Wm9MXUCu+PefzIINJzmb8CyjAmx+Oy0knWUjzdevRMbxQr2EzGTVjGF0DfDC5Rqav9Gst9VrbqnfbuHuXZb+Bzdm/145TbuJlRzn70uOs7rSg+cev547mmS/riH1263cvauSroP68NUdnW0Hirik9GUjCZ+xk1lbalkcp60VTaF5WhZXhGYyVntvBjRXUAB49+APN/viX3OeRaua5s5WxrSDLNxTiUvHYP5xmwTFr9F9+g5qayUomtPVGxbGMyQpJmMNjAlr9vN9n2GDeHOMJ9652Ty5PJWMXxEYFan7eeSTbI64+9ruJxHCwVy1YVG8K5//Wrqk2wfwxFhbnQ1NzYmoccP57K5AOmdkcMfC7XywK4fSRoSGsTSHDZ9tYfTyHLJDO/GhvX4SIRzMVdlnYcw7zusfHTfdw6KdNwseHMrEzo2Yk90UKgrZ+dMxPtxTxZA743hEzzAMkLByM6/ke3N/XA9+09tOp6cQDuiqC4t9X21m2t5q3N3diIkM4s+/Nd37QgjRvK66sBBCtIyrts9CCHFlSVgIIXSRsBBC6CJhIYTQRcJCCKGLhIUQQhcJCyGELhIWQghdJCyEELpIWAghdJGwEELoImEhhNBFwkIIoYuEhRBCFwkLIYQuEhZCCF0kLIQQukhYCCF0kbAQQugiYSGE0EXCQgihi4SFEEIXCQshhC4SFkIIXSQshBC6SFgIIXSRsBBC6CJhIYTQRcJCCKGLhIUQQhcJCyGELhIWQghdJCyEELpIWAghdJGwEELoImEhhNBFwkIIoYuhtra2Vrvw2lVNYc4FKs2lNu28CPRy0qzTPIx5p1i9KZMVee14aU4s0doVbDlzgD8sK6J9bDD3j40gvK12BSGajoQFQEkqf1qQwY+qhQYm33Yz84c3d1iUkfRNMn/YXYF3twDmjoliVI+2OGtXs6mazKRUXtuQQ3ylKw9OGsDjQ310PleIxnHo05Di+B30m7ve9HhmN/HaFZqKdxT/fC6cO9yUC9vRu1szB4Uxn3VLE3h4dzWjxg9k7cxYRtsJCtvfhQuhA2NY8vQwXulZwxff7OaRddkYtU92YJXZKWxc9ixThvSik5cBg8H88OpEr3FPsuynU3UtPftKWXe/9bluc7dpV2hhlWSnbGTZs1MY0qsTXpZtNBjw6tSLcU8u46dTl97KlubQYbEvs8xaCPOiv7KyiTl7edHJS7HAz4PeHRXlJldO/Ip9zDteQ79RfVgQ528zJCwa/C6cfbj5/qEsjLqO5G2HWLBLsa6jSl/PkzcG4BMSwy0zXqf4juUknq2ltiKL+Pn9cS3L4timt5gRF0mfufEUaZ+vsp9tq6ylO6+PUVZehnhmGwwYRi4jXVvVSOnrn+TGAB9CYm5hxuvF3LE8kbO1tVRkxTO/vytlWcfY9NYM4iL7MDe+4a1saQ4cFqc5nGk9Q+oZ6IOPqr6JGYs5ftZa9An1IUpZr0sNPy7fUNcCuPPbbO0KdYzJh1hw6CIunTvx0qTgBoNC33fhyZjJYUx2u8ia7w+yqVBb72BO/8BbW/OpAhjxNkvnDCXYDXAL5sZnP2R+T8uKVaS/MpXXExpoLx1I5LsqS2EwwyOUqd+yTv/wFlvzTR9uxNtLmTM0GNNm3sizH87HupnpvDL1dRrazJbmwGHRmSfmTSBlkemx6rZg7QpN6+h59iuKsR0vo1lhzGDvSctO7cTgUHufOZcv4gvIx4n/GxxFZ211PTq/C+8IpsS4QmUx7245fdWcjtz2h0l0Vy5w7s+Q8coF+fx0+LRygVr0HI7W1lJbW0tt7R5mRmhXcAS38YdJqq3Euf8Q1Jv5Ew1tZktz4LAAY2kJWTnnyMopobSZf/np/zvPmbqSG9Gh7qp6PYp35fK15dTTyYv+9oY0kk/z8VmgvR8TBuvrF9H7XUQP9mcgcOrnTH4o0dY6op6MiAzULmwkI2X5ueTm5pKbX+aYIdlzBL96M1tY84yGGIvZszmVD5LKOFhWQ7WzC7eN7cdz5vPyipNH+GB9NmuyqiiuAXfPAF57fiDDAZITuWFlAcWqF/ThlQXDubnBtnoNpcfT+HJLHt9mVZBTadosFzdnugb4MNq/nG/3l1PRKYSPHo9WH8moYdNHG3nqqLno5sf7Lw4mRvU5DfgE+jLvjoHc3Fm7g9dQevwIL315mo0XNFUAtOf1RcMYYy4lrNjIzH01dBrUh//e0UC74rK+i1yWv/ozi89eqdGc5pDHyskduetbS9mVWVvKWByn3ujEvwUwZH6+ahmPbaL6nZsucVp3KfHMNoxmyYilnNgxXfNbaUJ5K5nc8S6smzmLLWWL0Wymw2jysDCePsrCL0+xukj7sh4896cRDDqym+kbSlD9iTuH8v0TfQkC046XlMzdqwqsR3pVvQ3GYrauTmbOviqqMdC9f3feuC2CUM7wr3cO8I6yL6J/L7be3U35bOA0by84xFLLkbhXV9b1KGHG+iJyajSrhnRi7R+jracOJ/bzu39lc1i9llpAMKvmxJjPT7P5cNF+3iyAiZPGsWBUQzvzZXwXijCyva0N2JVAv2/PaZfqp9rOXyHrCyZ0upcNlnLfV0hJnkO0dicylrF74SCG/fVY3aLb/p3Lmqm/9hB+ZcIi64sJdLq3bivp+0oKyXOif2XQNZ8mPw0pyS3lmLMvC2eOJWV6R8UP5yLZexOZuc+VBX8ex+4pvnWddJ0CvRU/fie8fFzwritr67XK+PGLRJ7cV0U14B/VnX/dHUFoW6BtJ0aGq8ZDbfdFZBSRqGiydyrO48HvK5l8x3CSFgxiTohi3awLHFcUCY/hy0UTSJqk7nIcM/7Guj6GFOUOVFLM4QIAN7oFNhQUXMZ3YRLg6QpAcU7pr+7Nv/JKiX91tjUoXONYuvqP9YMCwNkT/yA/xYKmOKW5QkrjeXW2NShc45ay+o+OGxQ0R1j4DR7M538ewvhuLpqaKj7fD089MJAhgU609XPDsg/GdFTujUB+pWKHNDC0k/2mekF8Ck+nXjQVnDx4ZGwEyp9PlfEXRcmN3iH1+yKMmeWkKMpn8uHeB0bxyAAfnJ39CVburXYknVEOV3owLLL++wCQX00uAG3w0tNp34jvwqK7ryksyK+kUf1lw4dZA+5yHk3QqiiKf4EHlljanaHM2rCa6RH2d6GstCRrwfW3DLbXT+RQioh/4QGsmzmLDaun08BmOoQmDwul4qxyrA1EGDWyD2M6mAvmI3LKogn1muL7zpynuq7kSX+7Y5hn+Hp3ad26Lj07clsnZX05WUXWV8LNgygbPeWHcstV5YHX92VahOUzZZOhOI2hY1vCFEWT0ySfVJyvNDRHo27nd8bX3joK+r8LG2pqUUalwyv6geenLiETAE/GfbSZRXG+2rUUDpBoHTOFO69H9wyL9GWMVEyOUj9GswRg5wzC69VZHrMve5Jg0Q/PM3WJaSvxHMdHmxfR4GY6iGYNC9VEIjwZPcBTUbbnLIcyFTt4Rw8i7R3Zk7P5su4U28BvIrprmnG5HM1SFEM8iFQUTYo5kad4P7yYPNySaEBuIXsLrMVOob71z2FzSzikOI1pcI5Gba1i57+URnwXVztjGstun8S7+QCh3PnvJNY+GNFwszwjmfWKo1FcXB/0NNZakjFtGbdPetfUZxd6J/9OWsuDjt6kMGvGsFBPJNL9Qy8pYJ+pnQ72dk6zfSdLFSMFNqZnHywiXjGL1uZkJmMu+5Vt9c7exCo+p/HkeZLrSk7Edat/GlB8pISEupKBuC5dVPUqBgPaEzS7GvFdXN2KiJ87lhnxVUAoD6/dyedTLxEUQOmheMXRvScTYuu3+ezqPp0ddXMztI8tzAIYsZQT9eosj8XEaV/zUorimTt2BqbNfJi1Oz9n6lUSFDRrWGiOtrp/6KmlbK8rGBgUounPqFNDfpniqOvtTrimWX/geIli7oSBvoE2JjNpJmOpOxBr2HPKeppjb+7EkVzleKknA3s30HHp70YPAKrIztBWauj+LuxwMjTuD7wrwXr9yeU8Xt2vOu3Ux0jastsZvyTT3KLYzHsTQy8ZFAD7lXO8XccTW7/Z6DiMaSy7fTymzbyTf29+j4mherbScTTqt9QYxuNliqOtjU5MO9Tn6DZaC3XyyVZOpXdtg6pLsSSNb/YrzmdpR6+uiqJZTna5KlDUO2QW+zMUfREhHkTV+/tmk5qp7K9wp1tDLSh/F0yZ9gvVlzgf0f9dqKUXmbfb303H7NCWVbptHmNnxFOFK3FLN+tqUZho+ivGD7Xxt3EUpWybZ245ucaxdPPV1aKwaLawUI8OuNMrVM8PXdN/YKO1oE8ZP67JYI3yQj6br1XDwazzirJmh9S0jnp26mBj2PI8mYo+DQI86vorCnbt5t73D6mPtt4e5jCp5HCWumNV7fK/i9NFFQD4BHnpa81ZXOnRkKJ4Xrj3FTKB0FkbWD29flAYyw7y1kgDhiHvk6asyDvCTsUX23NEJI46aFoU/wL3vmJqOdke3TFSdvAtRhoMDHlftZUOpZnCIpdjWYqjrbcHfXSdTlZyQXWlbi01xmoyk5KZuXA3P6oujupIlwCDtVh4niN5NRhLc/j2o908V+TNHcqdy8+d+g2LLNJyFEXtDnm+hlJF8UJVNcaKQnZ+s40pn6ahzIg65VXkGKvJTEriT2vPcV2IL+ppUZ2JNQdScq6iQ6KexnwXStmczK0FDAwJ1pkuLaKUbQsfMDXLgcwlo+lQb8TBgItXNE/uBJzboDrcnC9TT+y7WIOxMpvdb97KgEtepXoFlW5j4QOWEZ5MlozuUG8bDQYXvKKfxLSZeg6qLaN5wqKkiAPK4cYgD/ooivb5E+qnCICSfB6et5mJq86S4eOOv2bqwsjeHfC3FGpKeeG1jQx8aR8Litvz1gO+1Cp+TTY7NzUtB5cQL/Xn7OJO3QgqcCY5lYEv7OGxvVVEhrY3T5bqQE/lmUtGJrfM28zEVfmcjezO6zauKB3Y3fRZik8WsU9TZ9W476LOmQJ2FZj6V26MsbeSA0hdzhOvmJNCD39PPJTlzt0ZZJ5OAnDsmQG4tA1h2NzDRPYLVJ+StqDU5U/QuM1UbaVDaZ6wUHXMQb8A33o7jG1OjJkUwYOBTuYRg+vwC/bh6buGsXZmNNGa28Y5x8aybFIH+rqZdip3dzduGhXJd38YyMDCMg7WNW5sXwGqHumA2KAA9ed0juCJyf51r49zG2IjO/GvWaMV95/owO139eDBYEufiQEfXw8e/M0A1tyvniBm4Ty4Cw8GACWFbEzUzie3aNx3YXEgMZ8kwD86iJsa6jtpYem7VnFQu7AhYQHq0wznOJ6PX8AN/ubE8Azh5j98zt7TR/jinijU83ZbSjq7VjVqKwkLcNSTqWa4NuSKKMzgg89OcKhnLxaN74St/eb0hq1MijePUji15/UXhzFGX2JdEcUJu7l9TRElnUP5+om+TdMRWXiUeW+cZJ3RiwVzRjJRMV1ENMaVuTbkatM8LYvmZDzJq2+n8m52NdsSMtll8zLsQnamWYczXbr5EOtAQQHgMyyaeX3aUH36DM+tbYpb4ZXx49rTrKtsw+RJ/SQofpU4FtfWUitBoXLVhUXxjmw+s+RAtw6MsdHUNh48xcq6mZtO/F+/iPr9FS3Onbi7+/BcmBMp2w8xLz7/8gPDWMymT3fzdOovxF7fh3nD9cyUFaJxrrqwUPnll/o7mDGbL37I55S56B/Vlek6bzBzxTkHc8eMwfxrqAvbNyQx6f1kthyvqL9NdlWTmbSfWQsTeOqYE/dMGcoHE+t3qArRFK66sPAZEMhdnuYOx+O5fJBUYL5zVDWFR4/w8pIDLDYPHQZ1C+XNe2x3MjoMZx+GTLmRLX+M4AHXMhb8J5Uj2nXsyT3Ga+uK8YrpztfPjWaW/DcAohldnR2cFXls2ZzBV0fKSCuppqDuUHwdft4uRHT25dYBYYzpLTuPEE3l6gwLIcQVd9WdhgghWoaEhRBCFwkLIYQuEhZCCF0kLIQQukhYCCF0kbAQQugiYSGE0EXCQgihi4SFEEIXCQshhC4SFkIIXSQshBC6SFgIIXSRsBBC6CJhIYTQ5f8Bo88ZkoO5ceMAAAAASUVORK5CYII=;imageBackground=#CCE5FF;" parent="1" vertex="1">
                    <mxGeometry x="630.25" y="161" width="157.61" height="134" as="geometry"/>
                </mxCell>
                <mxCell id="84" value="" style="rounded=0;whiteSpace=wrap;html=1;fillColor=#ffe6cc;strokeColor=#d79b00;" parent="1" vertex="1">
                    <mxGeometry x="440" y="628" width="436" height="391" as="geometry"/>
                </mxCell>
                <mxCell id="59" value="3" style="ellipse;whiteSpace=wrap;html=1;aspect=fixed;" parent="1" vertex="1">
                    <mxGeometry x="644" y="701" width="43" height="43" as="geometry"/>
                </mxCell>
                <mxCell id="60" value="14" style="ellipse;whiteSpace=wrap;html=1;aspect=fixed;" parent="1" vertex="1">
                    <mxGeometry x="563" y="772" width="43" height="43" as="geometry"/>
                </mxCell>
                <mxCell id="61" value="5" style="ellipse;whiteSpace=wrap;html=1;aspect=fixed;" parent="1" vertex="1">
                    <mxGeometry x="733" y="769" width="43" height="43" as="geometry"/>
                </mxCell>
                <mxCell id="62" value="16" style="ellipse;whiteSpace=wrap;html=1;aspect=fixed;" parent="1" vertex="1">
                    <mxGeometry x="509" y="852" width="43" height="43" as="geometry"/>
                </mxCell>
                <mxCell id="63" value="19" style="ellipse;whiteSpace=wrap;html=1;aspect=fixed;" parent="1" vertex="1">
                    <mxGeometry x="597" y="854" width="43" height="43" as="geometry"/>
                </mxCell>
                <mxCell id="64" value="7" style="ellipse;whiteSpace=wrap;html=1;aspect=fixed;" parent="1" vertex="1">
                    <mxGeometry x="695" y="858" width="43" height="43" as="geometry"/>
                </mxCell>
                <mxCell id="65" value="8" style="ellipse;whiteSpace=wrap;html=1;aspect=fixed;" parent="1" vertex="1">
                    <mxGeometry x="784" y="861" width="43" height="43" as="geometry"/>
                </mxCell>
                <mxCell id="66" value="" style="endArrow=none;html=1;" parent="1" source="60" target="59" edge="1">
                    <mxGeometry width="50" height="50" relative="1" as="geometry">
                        <mxPoint x="690" y="935" as="sourcePoint"/>
                        <mxPoint x="740" y="885" as="targetPoint"/>
                    </mxGeometry>
                </mxCell>
                <mxCell id="67" value="" style="endArrow=none;html=1;" parent="1" source="61" target="59" edge="1">
                    <mxGeometry width="50" height="50" relative="1" as="geometry">
                        <mxPoint x="710" y="955" as="sourcePoint"/>
                        <mxPoint x="760" y="905" as="targetPoint"/>
                    </mxGeometry>
                </mxCell>
                <mxCell id="68" value="" style="endArrow=none;html=1;" parent="1" source="62" target="60" edge="1">
                    <mxGeometry width="50" height="50" relative="1" as="geometry">
                        <mxPoint x="720" y="965" as="sourcePoint"/>
                        <mxPoint x="770" y="915" as="targetPoint"/>
                    </mxGeometry>
                </mxCell>
                <mxCell id="69" value="" style="endArrow=none;html=1;" parent="1" source="63" target="60" edge="1">
                    <mxGeometry width="50" height="50" relative="1" as="geometry">
                        <mxPoint x="730" y="975" as="sourcePoint"/>
                        <mxPoint x="780" y="925" as="targetPoint"/>
                    </mxGeometry>
                </mxCell>
                <mxCell id="70" value="" style="endArrow=none;html=1;" parent="1" source="64" target="61" edge="1">
                    <mxGeometry width="50" height="50" relative="1" as="geometry">
                        <mxPoint x="740" y="985" as="sourcePoint"/>
                        <mxPoint x="790" y="935" as="targetPoint"/>
                    </mxGeometry>
                </mxCell>
                <mxCell id="71" value="" style="endArrow=none;html=1;" parent="1" source="61" target="65" edge="1">
                    <mxGeometry width="50" height="50" relative="1" as="geometry">
                        <mxPoint x="750" y="995" as="sourcePoint"/>
                        <mxPoint x="800" y="945" as="targetPoint"/>
                    </mxGeometry>
                </mxCell>
                <mxCell id="72" value="21" style="ellipse;whiteSpace=wrap;html=1;aspect=fixed;" parent="1" vertex="1">
                    <mxGeometry x="466" y="929" width="43" height="43" as="geometry"/>
                </mxCell>
                <mxCell id="73" value="17" style="ellipse;whiteSpace=wrap;html=1;aspect=fixed;" parent="1" vertex="1">
                    <mxGeometry x="545" y="929" width="43" height="43" as="geometry"/>
                </mxCell>
                <mxCell id="74" value="15" style="ellipse;whiteSpace=wrap;html=1;aspect=fixed;" parent="1" vertex="1">
                    <mxGeometry x="654" y="936" width="43" height="43" as="geometry"/>
                </mxCell>
                <mxCell id="75" value="9" style="ellipse;whiteSpace=wrap;html=1;aspect=fixed;" parent="1" vertex="1">
                    <mxGeometry x="741" y="932" width="43" height="43" as="geometry"/>
                </mxCell>
                <mxCell id="76" value="" style="endArrow=none;html=1;" parent="1" source="72" target="62" edge="1">
                    <mxGeometry width="50" height="50" relative="1" as="geometry">
                        <mxPoint x="690" y="935" as="sourcePoint"/>
                        <mxPoint x="740" y="885" as="targetPoint"/>
                    </mxGeometry>
                </mxCell>
                <mxCell id="77" value="" style="endArrow=none;html=1;" parent="1" source="73" target="62" edge="1">
                    <mxGeometry width="50" height="50" relative="1" as="geometry">
                        <mxPoint x="484" y="952" as="sourcePoint"/>
                        <mxPoint x="513" y="910" as="targetPoint"/>
                    </mxGeometry>
                </mxCell>
                <mxCell id="78" value="" style="endArrow=none;html=1;" parent="1" source="74" target="64" edge="1">
                    <mxGeometry width="50" height="50" relative="1" as="geometry">
                        <mxPoint x="494" y="962" as="sourcePoint"/>
                        <mxPoint x="523" y="920" as="targetPoint"/>
                    </mxGeometry>
                </mxCell>
                <mxCell id="79" value="" style="endArrow=none;html=1;" parent="1" source="75" target="64" edge="1">
                    <mxGeometry width="50" height="50" relative="1" as="geometry">
                        <mxPoint x="504" y="972" as="sourcePoint"/>
                        <mxPoint x="533" y="930" as="targetPoint"/>
                    </mxGeometry>
                </mxCell>
                <mxCell id="80" value="Min Heap" style="text;html=1;align=center;verticalAlign=middle;whiteSpace=wrap;rounded=0;fillColor=#dae8fc;strokeColor=#6c8ebf;fontStyle=1;fontSize=18;" parent="1" vertex="1">
                    <mxGeometry x="460" y="642" width="111.5" height="30" as="geometry"/>
                </mxCell>
                <mxCell id="85" value="" style="group" parent="1" vertex="1" connectable="0">
                    <mxGeometry x="-19" y="-88" width="436" height="392" as="geometry"/>
                </mxCell>
                <mxCell id="81" value="" style="rounded=0;whiteSpace=wrap;html=1;fillColor=#FFFFFF;strokeColor=#d6b656;" parent="85" vertex="1">
                    <mxGeometry width="436" height="392" as="geometry"/>
                </mxCell>
                <mxCell id="2" value="12" style="ellipse;whiteSpace=wrap;html=1;aspect=fixed;" parent="85" vertex="1">
                    <mxGeometry x="200" y="69" width="43" height="43" as="geometry"/>
                </mxCell>
                <mxCell id="3" value="10" style="ellipse;whiteSpace=wrap;html=1;aspect=fixed;" parent="85" vertex="1">
                    <mxGeometry x="119" y="140" width="43" height="43" as="geometry"/>
                </mxCell>
                <mxCell id="4" value="18" style="ellipse;whiteSpace=wrap;html=1;aspect=fixed;" parent="85" vertex="1">
                    <mxGeometry x="289" y="137" width="43" height="43" as="geometry"/>
                </mxCell>
                <mxCell id="5" value="8" style="ellipse;whiteSpace=wrap;html=1;aspect=fixed;" parent="85" vertex="1">
                    <mxGeometry x="65" y="220" width="43" height="43" as="geometry"/>
                </mxCell>
                <mxCell id="6" value="11" style="ellipse;whiteSpace=wrap;html=1;aspect=fixed;" parent="85" vertex="1">
                    <mxGeometry x="153" y="222" width="43" height="43" as="geometry"/>
                </mxCell>
                <mxCell id="7" value="16" style="ellipse;whiteSpace=wrap;html=1;aspect=fixed;" parent="85" vertex="1">
                    <mxGeometry x="251" y="226" width="43" height="43" as="geometry"/>
                </mxCell>
                <mxCell id="8" value="22" style="ellipse;whiteSpace=wrap;html=1;aspect=fixed;" parent="85" vertex="1">
                    <mxGeometry x="340" y="229" width="43" height="43" as="geometry"/>
                </mxCell>
                <mxCell id="9" value="" style="endArrow=none;html=1;" parent="85" source="3" target="2" edge="1">
                    <mxGeometry width="50" height="50" relative="1" as="geometry">
                        <mxPoint x="246" y="303" as="sourcePoint"/>
                        <mxPoint x="296" y="253" as="targetPoint"/>
                    </mxGeometry>
                </mxCell>
                <mxCell id="13" value="" style="endArrow=none;html=1;" parent="85" source="4" target="2" edge="1">
                    <mxGeometry width="50" height="50" relative="1" as="geometry">
                        <mxPoint x="266" y="323" as="sourcePoint"/>
                        <mxPoint x="316" y="273" as="targetPoint"/>
                    </mxGeometry>
                </mxCell>
                <mxCell id="14" value="" style="endArrow=none;html=1;" parent="85" source="5" target="3" edge="1">
                    <mxGeometry width="50" height="50" relative="1" as="geometry">
                        <mxPoint x="276" y="333" as="sourcePoint"/>
                        <mxPoint x="326" y="283" as="targetPoint"/>
                    </mxGeometry>
                </mxCell>
                <mxCell id="15" value="" style="endArrow=none;html=1;" parent="85" source="6" target="3" edge="1">
                    <mxGeometry width="50" height="50" relative="1" as="geometry">
                        <mxPoint x="286" y="343" as="sourcePoint"/>
                        <mxPoint x="336" y="293" as="targetPoint"/>
                    </mxGeometry>
                </mxCell>
                <mxCell id="16" value="" style="endArrow=none;html=1;" parent="85" source="7" target="4" edge="1">
                    <mxGeometry width="50" height="50" relative="1" as="geometry">
                        <mxPoint x="296" y="353" as="sourcePoint"/>
                        <mxPoint x="346" y="303" as="targetPoint"/>
                    </mxGeometry>
                </mxCell>
                <mxCell id="17" value="" style="endArrow=none;html=1;" parent="85" source="4" target="8" edge="1">
                    <mxGeometry width="50" height="50" relative="1" as="geometry">
                        <mxPoint x="306" y="363" as="sourcePoint"/>
                        <mxPoint x="356" y="313" as="targetPoint"/>
                    </mxGeometry>
                </mxCell>
                <mxCell id="23" value="3" style="ellipse;whiteSpace=wrap;html=1;aspect=fixed;" parent="85" vertex="1">
                    <mxGeometry x="22" y="297" width="43" height="43" as="geometry"/>
                </mxCell>
                <mxCell id="24" value="9" style="ellipse;whiteSpace=wrap;html=1;aspect=fixed;" parent="85" vertex="1">
                    <mxGeometry x="99" y="300" width="43" height="43" as="geometry"/>
                </mxCell>
                <mxCell id="25" value="13" style="ellipse;whiteSpace=wrap;html=1;aspect=fixed;" parent="85" vertex="1">
                    <mxGeometry x="210" y="304" width="43" height="43" as="geometry"/>
                </mxCell>
                <mxCell id="26" value="17" style="ellipse;whiteSpace=wrap;html=1;aspect=fixed;" parent="85" vertex="1">
                    <mxGeometry x="294" y="304" width="43" height="43" as="geometry"/>
                </mxCell>
                <mxCell id="27" value="" style="endArrow=none;html=1;" parent="85" source="23" target="5" edge="1">
                    <mxGeometry width="50" height="50" relative="1" as="geometry">
                        <mxPoint x="246" y="303" as="sourcePoint"/>
                        <mxPoint x="296" y="253" as="targetPoint"/>
                    </mxGeometry>
                </mxCell>
                <mxCell id="28" value="" style="endArrow=none;html=1;" parent="85" source="24" target="5" edge="1">
                    <mxGeometry width="50" height="50" relative="1" as="geometry">
                        <mxPoint x="40" y="320" as="sourcePoint"/>
                        <mxPoint x="69" y="278" as="targetPoint"/>
                    </mxGeometry>
                </mxCell>
                <mxCell id="29" value="" style="endArrow=none;html=1;" parent="85" source="25" target="7" edge="1">
                    <mxGeometry width="50" height="50" relative="1" as="geometry">
                        <mxPoint x="50" y="330" as="sourcePoint"/>
                        <mxPoint x="79" y="288" as="targetPoint"/>
                    </mxGeometry>
                </mxCell>
                <mxCell id="30" value="" style="endArrow=none;html=1;" parent="85" source="26" target="7" edge="1">
                    <mxGeometry width="50" height="50" relative="1" as="geometry">
                        <mxPoint x="60" y="340" as="sourcePoint"/>
                        <mxPoint x="89" y="298" as="targetPoint"/>
                    </mxGeometry>
                </mxCell>
                <mxCell id="36" value="Binært Tre" style="text;html=1;align=center;verticalAlign=middle;whiteSpace=wrap;rounded=0;fillColor=#dae8fc;strokeColor=#6c8ebf;fontStyle=1;fontSize=18;" parent="85" vertex="1">
                    <mxGeometry x="17" y="12" width="111.5" height="30" as="geometry"/>
                </mxCell>
                <mxCell id="86" value="" style="group" parent="1" vertex="1" connectable="0">
                    <mxGeometry x="-28" y="628" width="436" height="391" as="geometry"/>
                </mxCell>
                <mxCell id="83" value="" style="rounded=0;whiteSpace=wrap;html=1;fillColor=#f5f5f5;fontColor=#333333;strokeColor=#666666;" parent="86" vertex="1">
                    <mxGeometry width="436" height="391" as="geometry"/>
                </mxCell>
                <mxCell id="37" value="24" style="ellipse;whiteSpace=wrap;html=1;aspect=fixed;" parent="86" vertex="1">
                    <mxGeometry x="210.11" y="68" width="43" height="43" as="geometry"/>
                </mxCell>
                <mxCell id="38" value="14" style="ellipse;whiteSpace=wrap;html=1;aspect=fixed;" parent="86" vertex="1">
                    <mxGeometry x="129.11" y="139" width="43" height="43" as="geometry"/>
                </mxCell>
                <mxCell id="39" value="18" style="ellipse;whiteSpace=wrap;html=1;aspect=fixed;" parent="86" vertex="1">
                    <mxGeometry x="299.11" y="136" width="43" height="43" as="geometry"/>
                </mxCell>
                <mxCell id="40" value="8" style="ellipse;whiteSpace=wrap;html=1;aspect=fixed;" parent="86" vertex="1">
                    <mxGeometry x="75.11000000000001" y="219" width="43" height="43" as="geometry"/>
                </mxCell>
                <mxCell id="41" value="11" style="ellipse;whiteSpace=wrap;html=1;aspect=fixed;" parent="86" vertex="1">
                    <mxGeometry x="163.11" y="221" width="43" height="43" as="geometry"/>
                </mxCell>
                <mxCell id="42" value="16" style="ellipse;whiteSpace=wrap;html=1;aspect=fixed;" parent="86" vertex="1">
                    <mxGeometry x="261.11" y="225" width="43" height="43" as="geometry"/>
                </mxCell>
                <mxCell id="43" value="12" style="ellipse;whiteSpace=wrap;html=1;aspect=fixed;" parent="86" vertex="1">
                    <mxGeometry x="350.11" y="228" width="43" height="43" as="geometry"/>
                </mxCell>
                <mxCell id="44" value="" style="endArrow=none;html=1;" parent="86" source="38" target="37" edge="1">
                    <mxGeometry width="50" height="50" relative="1" as="geometry">
                        <mxPoint x="256.11" y="302" as="sourcePoint"/>
                        <mxPoint x="306.11" y="252" as="targetPoint"/>
                    </mxGeometry>
                </mxCell>
                <mxCell id="45" value="" style="endArrow=none;html=1;" parent="86" source="39" target="37" edge="1">
                    <mxGeometry width="50" height="50" relative="1" as="geometry">
                        <mxPoint x="276.11" y="322" as="sourcePoint"/>
                        <mxPoint x="326.11" y="272" as="targetPoint"/>
                    </mxGeometry>
                </mxCell>
                <mxCell id="46" value="" style="endArrow=none;html=1;" parent="86" source="40" target="38" edge="1">
                    <mxGeometry width="50" height="50" relative="1" as="geometry">
                        <mxPoint x="286.11" y="332" as="sourcePoint"/>
                        <mxPoint x="336.11" y="282" as="targetPoint"/>
                    </mxGeometry>
                </mxCell>
                <mxCell id="47" value="" style="endArrow=none;html=1;" parent="86" source="41" target="38" edge="1">
                    <mxGeometry width="50" height="50" relative="1" as="geometry">
                        <mxPoint x="296.11" y="342" as="sourcePoint"/>
                        <mxPoint x="346.11" y="292" as="targetPoint"/>
                    </mxGeometry>
                </mxCell>
                <mxCell id="48" value="" style="endArrow=none;html=1;" parent="86" source="42" target="39" edge="1">
                    <mxGeometry width="50" height="50" relative="1" as="geometry">
                        <mxPoint x="306.11" y="352" as="sourcePoint"/>
                        <mxPoint x="356.11" y="302" as="targetPoint"/>
                    </mxGeometry>
                </mxCell>
                <mxCell id="49" value="" style="endArrow=none;html=1;" parent="86" source="39" target="43" edge="1">
                    <mxGeometry width="50" height="50" relative="1" as="geometry">
                        <mxPoint x="316.11" y="362" as="sourcePoint"/>
                        <mxPoint x="366.11" y="312" as="targetPoint"/>
                    </mxGeometry>
                </mxCell>
                <mxCell id="50" value="3" style="ellipse;whiteSpace=wrap;html=1;aspect=fixed;" parent="86" vertex="1">
                    <mxGeometry x="35" y="299" width="43" height="43" as="geometry"/>
                </mxCell>
                <mxCell id="51" value="6" style="ellipse;whiteSpace=wrap;html=1;aspect=fixed;" parent="86" vertex="1">
                    <mxGeometry x="109.11000000000001" y="299" width="43" height="43" as="geometry"/>
                </mxCell>
                <mxCell id="52" value="15" style="ellipse;whiteSpace=wrap;html=1;aspect=fixed;" parent="86" vertex="1">
                    <mxGeometry x="220.11" y="303" width="43" height="43" as="geometry"/>
                </mxCell>
                <mxCell id="53" value="9" style="ellipse;whiteSpace=wrap;html=1;aspect=fixed;" parent="86" vertex="1">
                    <mxGeometry x="307.11" y="299" width="43" height="43" as="geometry"/>
                </mxCell>
                <mxCell id="54" value="" style="endArrow=none;html=1;" parent="86" source="50" target="40" edge="1">
                    <mxGeometry width="50" height="50" relative="1" as="geometry">
                        <mxPoint x="63.99616287259289" y="298.67507979342554" as="sourcePoint"/>
                        <mxPoint x="306.11" y="252" as="targetPoint"/>
                    </mxGeometry>
                </mxCell>
                <mxCell id="55" value="" style="endArrow=none;html=1;" parent="86" source="51" target="40" edge="1">
                    <mxGeometry width="50" height="50" relative="1" as="geometry">
                        <mxPoint x="50.110000000000014" y="319" as="sourcePoint"/>
                        <mxPoint x="79.11000000000001" y="277" as="targetPoint"/>
                    </mxGeometry>
                </mxCell>
                <mxCell id="56" value="" style="endArrow=none;html=1;" parent="86" source="52" target="42" edge="1">
                    <mxGeometry width="50" height="50" relative="1" as="geometry">
                        <mxPoint x="60.110000000000014" y="329" as="sourcePoint"/>
                        <mxPoint x="89.11000000000001" y="287" as="targetPoint"/>
                    </mxGeometry>
                </mxCell>
                <mxCell id="57" value="" style="endArrow=none;html=1;" parent="86" source="53" target="42" edge="1">
                    <mxGeometry width="50" height="50" relative="1" as="geometry">
                        <mxPoint x="70.11000000000001" y="339" as="sourcePoint"/>
                        <mxPoint x="99.11000000000001" y="297" as="targetPoint"/>
                    </mxGeometry>
                </mxCell>
                <mxCell id="58" value="Max Heap" style="text;html=1;align=center;verticalAlign=middle;whiteSpace=wrap;rounded=0;fillColor=#dae8fc;strokeColor=#6c8ebf;fontStyle=1;fontSize=18;" parent="86" vertex="1">
                    <mxGeometry x="17.61" y="11" width="111.5" height="30" as="geometry"/>
                </mxCell>
                <mxCell id="88" value="3" style="whiteSpace=wrap;html=1;aspect=fixed;fillColor=#f5f5f5;fontColor=#333333;strokeColor=#666666;" parent="1" vertex="1">
                    <mxGeometry x="472.25" y="25.75" width="54" height="54" as="geometry"/>
                </mxCell>
                <mxCell id="89" value="8" style="whiteSpace=wrap;html=1;aspect=fixed;fillColor=#f5f5f5;fontColor=#333333;strokeColor=#666666;" parent="1" vertex="1">
                    <mxGeometry x="526.25" y="25.75" width="54" height="54" as="geometry"/>
                </mxCell>
                <mxCell id="90" value="9" style="whiteSpace=wrap;html=1;aspect=fixed;fillColor=#f5f5f5;fontColor=#333333;strokeColor=#666666;" parent="1" vertex="1">
                    <mxGeometry x="580.75" y="25.75" width="54" height="54" as="geometry"/>
                </mxCell>
                <mxCell id="91" value="10" style="whiteSpace=wrap;html=1;aspect=fixed;fillColor=#f5f5f5;fontColor=#333333;strokeColor=#666666;" parent="1" vertex="1">
                    <mxGeometry x="635.5" y="25.75" width="54" height="54" as="geometry"/>
                </mxCell>
                <mxCell id="92" value="11" style="whiteSpace=wrap;html=1;aspect=fixed;fillColor=#f5f5f5;fontColor=#333333;strokeColor=#666666;" parent="1" vertex="1">
                    <mxGeometry x="689.5" y="25.75" width="54" height="54" as="geometry"/>
                </mxCell>
                <mxCell id="93" value="12" style="whiteSpace=wrap;html=1;aspect=fixed;fillColor=#d5e8d4;strokeColor=#82b366;gradientColor=#97d077;" parent="1" vertex="1">
                    <mxGeometry x="744" y="25.75" width="54" height="54" as="geometry"/>
                </mxCell>
                <mxCell id="94" value="13" style="whiteSpace=wrap;html=1;aspect=fixed;fillColor=#f5f5f5;fontColor=#333333;strokeColor=#666666;" parent="1" vertex="1">
                    <mxGeometry x="798" y="25.75" width="54" height="54" as="geometry"/>
                </mxCell>
                <mxCell id="95" value="16" style="whiteSpace=wrap;html=1;aspect=fixed;fillColor=#f5f5f5;fontColor=#333333;strokeColor=#666666;" parent="1" vertex="1">
                    <mxGeometry x="852" y="25.75" width="54.25" height="54.25" as="geometry"/>
                </mxCell>
                <mxCell id="96" value="17" style="whiteSpace=wrap;html=1;aspect=fixed;fillColor=#f5f5f5;fontColor=#333333;strokeColor=#666666;" parent="1" vertex="1">
                    <mxGeometry x="906.5" y="25.75" width="54" height="54" as="geometry"/>
                </mxCell>
                <mxCell id="97" value="18" style="whiteSpace=wrap;html=1;aspect=fixed;fillColor=#f5f5f5;fontColor=#333333;strokeColor=#666666;" parent="1" vertex="1">
                    <mxGeometry x="961.25" y="25.75" width="54" height="54" as="geometry"/>
                </mxCell>
                <mxCell id="98" value="22" style="whiteSpace=wrap;html=1;aspect=fixed;fillColor=#f5f5f5;fontColor=#333333;strokeColor=#666666;" parent="1" vertex="1">
                    <mxGeometry x="1015.25" y="25.75" width="54" height="54" as="geometry"/>
                </mxCell>
                <mxCell id="100" value="12" style="whiteSpace=wrap;html=1;aspect=fixed;fillColor=#1ba1e2;strokeColor=#006EAF;fontColor=#ffffff;" parent="1" vertex="1">
                    <mxGeometry x="472.25" y="113" width="54" height="54" as="geometry"/>
                </mxCell>
                <mxCell id="101" value="10" style="whiteSpace=wrap;html=1;aspect=fixed;fillColor=#dae8fc;strokeColor=#6c8ebf;" parent="1" vertex="1">
                    <mxGeometry x="526.25" y="113" width="54" height="54" as="geometry"/>
                </mxCell>
                <mxCell id="102" value="18" style="whiteSpace=wrap;html=1;aspect=fixed;fillColor=#dae8fc;strokeColor=#6c8ebf;" parent="1" vertex="1">
                    <mxGeometry x="580.75" y="113" width="54" height="54" as="geometry"/>
                </mxCell>
                <mxCell id="103" value="8" style="whiteSpace=wrap;html=1;aspect=fixed;fillColor=#dae8fc;strokeColor=#6c8ebf;" parent="1" vertex="1">
                    <mxGeometry x="635.5" y="113" width="54" height="54" as="geometry"/>
                </mxCell>
                <mxCell id="104" value="11" style="whiteSpace=wrap;html=1;aspect=fixed;fillColor=#dae8fc;strokeColor=#6c8ebf;" parent="1" vertex="1">
                    <mxGeometry x="689.5" y="113" width="54" height="54" as="geometry"/>
                </mxCell>
                <mxCell id="105" value="16" style="whiteSpace=wrap;html=1;aspect=fixed;fillColor=#dae8fc;strokeColor=#6c8ebf;" parent="1" vertex="1">
                    <mxGeometry x="744" y="113" width="54" height="54" as="geometry"/>
                </mxCell>
                <mxCell id="106" value="22" style="whiteSpace=wrap;html=1;aspect=fixed;fillColor=#dae8fc;strokeColor=#6c8ebf;" parent="1" vertex="1">
                    <mxGeometry x="798" y="113" width="54" height="54" as="geometry"/>
                </mxCell>
                <mxCell id="107" value="3" style="whiteSpace=wrap;html=1;aspect=fixed;fillColor=#dae8fc;strokeColor=#6c8ebf;" parent="1" vertex="1">
                    <mxGeometry x="852" y="113" width="54.25" height="54.25" as="geometry"/>
                </mxCell>
                <mxCell id="108" value="9" style="whiteSpace=wrap;html=1;aspect=fixed;fillColor=#dae8fc;strokeColor=#6c8ebf;" parent="1" vertex="1">
                    <mxGeometry x="906.5" y="113" width="54" height="54" as="geometry"/>
                </mxCell>
                <mxCell id="109" value="0" style="whiteSpace=wrap;html=1;aspect=fixed;fillColor=#1ba1e2;strokeColor=#006EAF;fontColor=#ffffff;" parent="1" vertex="1">
                    <mxGeometry x="961.25" y="113" width="54" height="54" as="geometry"/>
                </mxCell>
                <mxCell id="110" value="0" style="whiteSpace=wrap;html=1;aspect=fixed;fillColor=#1ba1e2;strokeColor=#006EAF;fontColor=#ffffff;" parent="1" vertex="1">
                    <mxGeometry x="1015.25" y="113" width="54" height="54" as="geometry"/>
                </mxCell>
                <mxCell id="116" value="0" style="whiteSpace=wrap;html=1;aspect=fixed;fillColor=#fad7ac;strokeColor=#b46504;" parent="1" vertex="1">
                    <mxGeometry x="472.5" y="-62" width="54" height="54" as="geometry"/>
                </mxCell>
                <mxCell id="117" value="1" style="whiteSpace=wrap;html=1;aspect=fixed;fillColor=#fad7ac;strokeColor=#b46504;" parent="1" vertex="1">
                    <mxGeometry x="526.5" y="-62" width="54" height="54" as="geometry"/>
                </mxCell>
                <mxCell id="118" value="2" style="whiteSpace=wrap;html=1;aspect=fixed;fillColor=#fad7ac;strokeColor=#b46504;" parent="1" vertex="1">
                    <mxGeometry x="581" y="-62" width="54" height="54" as="geometry"/>
                </mxCell>
                <mxCell id="119" value="3" style="whiteSpace=wrap;html=1;aspect=fixed;fillColor=#fad7ac;strokeColor=#b46504;" parent="1" vertex="1">
                    <mxGeometry x="635.75" y="-62" width="54" height="54" as="geometry"/>
                </mxCell>
                <mxCell id="120" value="4" style="whiteSpace=wrap;html=1;aspect=fixed;fillColor=#fad7ac;strokeColor=#b46504;" parent="1" vertex="1">
                    <mxGeometry x="689.75" y="-62" width="54" height="54" as="geometry"/>
                </mxCell>
                <mxCell id="121" value="5" style="whiteSpace=wrap;html=1;aspect=fixed;fillColor=#fad7ac;strokeColor=#b46504;" parent="1" vertex="1">
                    <mxGeometry x="744.25" y="-62" width="54" height="54" as="geometry"/>
                </mxCell>
                <mxCell id="122" value="6" style="whiteSpace=wrap;html=1;aspect=fixed;fillColor=#fad7ac;strokeColor=#b46504;" parent="1" vertex="1">
                    <mxGeometry x="798.25" y="-62" width="54" height="54" as="geometry"/>
                </mxCell>
                <mxCell id="123" value="7" style="whiteSpace=wrap;html=1;aspect=fixed;fillColor=#fad7ac;strokeColor=#b46504;" parent="1" vertex="1">
                    <mxGeometry x="852.25" y="-62" width="54.25" height="54.25" as="geometry"/>
                </mxCell>
                <mxCell id="124" value="8" style="whiteSpace=wrap;html=1;aspect=fixed;fillColor=#fad7ac;strokeColor=#b46504;" parent="1" vertex="1">
                    <mxGeometry x="906.75" y="-62" width="54" height="54" as="geometry"/>
                </mxCell>
                <mxCell id="125" value="9" style="whiteSpace=wrap;html=1;aspect=fixed;fillColor=#fad7ac;strokeColor=#b46504;" parent="1" vertex="1">
                    <mxGeometry x="961.5" y="-62" width="54" height="54" as="geometry"/>
                </mxCell>
                <mxCell id="126" value="10" style="whiteSpace=wrap;html=1;aspect=fixed;fillColor=#fad7ac;strokeColor=#b46504;" parent="1" vertex="1">
                    <mxGeometry x="1015.5" y="-62" width="54" height="54" as="geometry"/>
                </mxCell>
                <mxCell id="128" value="&lt;b&gt;INDEX&lt;/b&gt;" style="text;html=1;align=center;verticalAlign=middle;resizable=0;points=[];autosize=1;strokeColor=none;fillColor=none;" parent="1" vertex="1">
                    <mxGeometry x="472" y="-88" width="55" height="26" as="geometry"/>
                </mxCell>
                <mxCell id="129" value="&lt;b&gt;Sorted ARRAY: in-order traversion av BST (Binary Search Tree)&lt;/b&gt;" style="text;html=1;align=center;verticalAlign=middle;resizable=0;points=[];autosize=1;strokeColor=none;fillColor=none;" parent="1" vertex="1">
                    <mxGeometry x="470" y="-0.25" width="378" height="26" as="geometry"/>
                </mxCell>
                <mxCell id="130" value="&lt;b&gt;HEAP Arrray Strukture: Nivåvis lagring&lt;/b&gt;&lt;div&gt;&lt;b&gt;&lt;br&gt;&lt;/b&gt;&lt;/div&gt;" style="text;html=1;align=center;verticalAlign=middle;resizable=0;points=[];autosize=1;strokeColor=none;fillColor=none;" parent="1" vertex="1">
                    <mxGeometry x="471" y="87.5" width="239" height="41" as="geometry"/>
                </mxCell>
                <mxCell id="133" value="13" style="whiteSpace=wrap;html=1;aspect=fixed;fillColor=#dae8fc;strokeColor=#6c8ebf;" parent="1" vertex="1">
                    <mxGeometry x="1069.5" y="113.25" width="54" height="54" as="geometry"/>
                </mxCell>
                <mxCell id="134" value="17" style="whiteSpace=wrap;html=1;aspect=fixed;fillColor=#dae8fc;strokeColor=#6c8ebf;" parent="1" vertex="1">
                    <mxGeometry x="1124.25" y="113.25" width="54" height="54" as="geometry"/>
                </mxCell>
                <mxCell id="135" value="0" style="whiteSpace=wrap;html=1;aspect=fixed;fillColor=#1ba1e2;strokeColor=#006EAF;fontColor=#ffffff;" parent="1" vertex="1">
                    <mxGeometry x="1178.25" y="113.25" width="54" height="54" as="geometry"/>
                </mxCell>
                <mxCell id="138" value="11" style="whiteSpace=wrap;html=1;aspect=fixed;fillColor=#fad7ac;strokeColor=#b46504;" parent="1" vertex="1">
                    <mxGeometry x="1069.25" y="-61.75" width="54" height="54" as="geometry"/>
                </mxCell>
                <mxCell id="139" value="12" style="whiteSpace=wrap;html=1;aspect=fixed;fillColor=#fad7ac;strokeColor=#b46504;" parent="1" vertex="1">
                    <mxGeometry x="1124" y="-61.75" width="54" height="54" as="geometry"/>
                </mxCell>
                <mxCell id="140" value="13" style="whiteSpace=wrap;html=1;aspect=fixed;fillColor=#fad7ac;strokeColor=#b46504;" parent="1" vertex="1">
                    <mxGeometry x="1178" y="-61.75" width="54" height="54" as="geometry"/>
                </mxCell>
                <mxCell id="141" value="0" style="whiteSpace=wrap;html=1;aspect=fixed;fillColor=#1ba1e2;strokeColor=#006EAF;fontColor=#ffffff;" parent="1" vertex="1">
                    <mxGeometry x="1232" y="113" width="54" height="54" as="geometry"/>
                </mxCell>
                <mxCell id="142" value="0" style="whiteSpace=wrap;html=1;aspect=fixed;fillColor=#fad7ac;strokeColor=#b46504;" parent="1" vertex="1">
                    <mxGeometry x="1232.25" y="-62" width="54" height="54" as="geometry"/>
                </mxCell>
                <mxCell id="FIZ8JESrjjyo7E55LpJ7-142" value="" style="shape=image;verticalLabelPosition=bottom;labelBackgroundColor=default;verticalAlign=top;aspect=fixed;imageAspect=0;image=data:image/png,iVBORw0KGgoAAAANSUhEUgAAAr8AAADnCAYAAAAXWz5dAAAAAXNSR0IArs4c6QAAAARnQU1BAACxjwv8YQUAAAAJcEhZcwAADsMAAA7DAcdvqGQAAFO1SURBVHhe7d1/cBtnnT/wd2qUJkIQTG3VGLu6E4US7s6W0VEMNZBezkxOSU4Xx8DdFTc/EPU5dQJzmWTqgpXGJk3nOuEGKmJ8o8kPMu0A4zrnS6wzmAylF0AUhBVzN6Ec0aGzSY2cYpqvUNqINN8/vnqe7+6jlbTyj8SO3q8ZzyT789lnn9397LOfXS276667roOIiIiIqATcpg4gIiIiIrpVMfglIiIiopLB4JeIiIiISgaDXyIiIiIqGQx+iYiIiKhkMPglIiIiopLB4JeIiIiISsYys9/5dTgc2L9/P+x2O9LpNI4cOYKhoSF1Msnr9WL79u2wWCxIJBLYt28f4vG4OhktIj6fDy0tLQCAWCyGzs5OdRKdQCAAp9MJABgcHEQwGFQnWTL+8i//EuvXr8ddd92FlStX4vr160ilUnjxxRdx5MgRxGIxdRYiIiJagtjzSyXvH//xH/HZz34W99xzD1auXAkAWLZsGd74xjfive99Lx5//HF88IMfVGcjIiKiJYjBL5U8m82G2267Da+++irGx8dx5swZTE5O4vXXXwcAvPnNb8YnP/lJvPnNb1ZnJSIioiWGwS+VvOvXr+OnP/0pOjo68Mgjj+DQoUN46KGHMDw8jGvXrgEA7HY73vnOd6qzEhER0RLD4JdK3sDAAA4cOIDf/OY3uuEvvPACXnvtNd0wIiIiWtpu+AtvnZ2d+Ku/+issW7Ys54twd955Jx5//HG87W1vw7Vr1/Dss8/i2LFjKCsrw4YNG7BmzRrU1tZi5cqVWLZsGa5du4aXXnoJoVAI//qv/6pblhkrV67EAw88gA996EN461vfirKyMrnMgYEBfPvb39ZN73a70dXVBavVikQigZ6eHvzFX/wFPB4Pbr/9dpw9exYHDx7UzZPLXNe9b98+NDQ0YNOmTbjjjjuwbNkypFIpPP/88wgGg7hy5Ypu/nwW4oW3O++8E3//93+Pe++9F29605tw22234erVq4jH43jmmWfwox/9SJ0FTqcTmzZtgsvlwlve8haUlZXJF9DGx8dx7NgxTExM6Obx+/1obGwEMmU5deoUtm/fDrfbDavVitdffx2//e1v8e///u/45je/KXt087n//vuxc+dOrFixAr/+9a/xuc99DolEQp2MiIiIlpAb3vN79uxZXL58GQDwlre8BatXr1YnQUNDA+644w4AwO9+9zucPXsWANDV1YX29nbcc889sFqtWLZsGQCgrKwMNTU1+NSnPoWOjg7dsgq5++678cUvfhEtLS2orKxEWVkZoFnmzp078cgjj8jhRj760Y/C6/VixYoVWLZsGSwWizqJoflY9+bNm/GpT30KlZWVuO222+SLWuvWrcOePXvyzrvQ7r33Xhw6dAjNzc1YtWoVbrvt/zW35cuX453vfCceffRR+Hw+3TwulwtPPPEE1q5dizvuuEOWX2zXBz7wAfT09ODuu+/Wzadls9lw4MABfOhDH4LVagUA3HbbbaioqMADDzyARx99tGC91NbW4mMf+xhWrFiBa9eu4T/+4z8Y+BIREd0Cbnjw+7Of/QwvvfQSkAmC6urq1EngcrmwfPlyAMB//dd/4Ze//CWQCWCuXbuGWCyGr3/96+ju7sbhw4fx61//GsgEjR/+8Ifhcrl0y8tl1apV6OzshMPhwPXr1/HrX/8ahw8fxmOPPYYzZ87g6tWrKCsrwwc+8AFs2LBBnR0A8IY3vAH33XdfwWBKNR/rfutb34r7778f09PT+Na3voVvfetbePnll4FMsFhXV3fTvlJw9913o6OjA29961vx+uuv4+c//zmefPJJfOELX8BPfvITXLt2DRaLBc3NzfjABz4g5ysrK8Ntt92GZDKJ733ve3jyySfx2GOP4bvf/S7S6TSQ6U1ubW3VrE3v/e9/P+68806cP38ep06dwpkzZzAzMwNk2tCf//mf56xTZMr+6KOP4o/+6I9w/fp1/PjHP8bTTz+tTkZERERL0KzSHoqlpjc8+OCD+NjHPoaysrKsx8nalIerV6/iq1/9KkZGRgAADzzwAH75y19mPSpfvXo1Hn30Udxxxx24du0ann76aXz961/XTWNk69at2Lx5M8rKyvCLX/wC+/btwyuvvGI4/uc//zn27NmDa9eu6VIPXn/9dVy/fh3PP/88/uVf/kU3fz7zsW4AWfNq6wJ50hGMaNMeiqWu55FHHsGHP/xhXL9+HT/60Y9w4MABXaqBGA8Azz//PJ544gkgU/7GxkZ8/etfz0rZ+MxnPoOPfvSjWLZsGf73f/8Xe/fulU8RtGkP6XQazzzzDL7xjW/IeVetWoXe3l7ZY3z+/Hns3r1bjhfuvvtuPPLII6iursa1a9fw/e9/H08++aSpNAkiIiJa/G54zy8A/OAHP8Dvfvc7AEBFRQXq6+vlOG3Kw8WLF/GDH/xAjnv66aezAl9kAhkR/JWVlcFms6mTZCkrK8N73/telJWV4erVqxgZGckKXH/2s5/JF57uuOMO3HXXXbrxyPQk/vjHP8aTTz6ZNX8u87XuK1eu4Nlnn9XNe/78eV0+bHV1tfz3jeJwOPDud78bAHD58mX827/9W1bweP78edmTW1tbK3vOz58/j6NHj2YFvgDwq1/9Cn/4wx8AACtWrEB5ebk6CQDgwoULGBgY0A175ZVXcObMGbnOiooK/PEf/7FumrKyMmzbtk0Gvs899xwDXyIiolvMrILfa9euYXJyEr/4xS9y/k1OTuYMGn75y1/KXuDbb78d73nPe+S4uro6LF++HNevX8fY2Jjs2RNWrVqFv/mbv4Hf70cgEMDXv/51nDx5Ur54ZVZNTY38buvy5cuxa9cuhEIh3V9vb6/sYX3jG9+It771rcpS/l8A+t3vflcdnNd8rTuZTGJyclIdjFdffVUdVLTf//73WftU/fv973+vzgZkAktxA7Jq1So8/vjjWdvX3t4uc6Pf+MY3oqamRrcMl8uFHTt24NChQzh69CgGBgbg8/lM5VP/4he/MGx7k5OTMvg1qtP3vve9eNe73gUAeOmllxAMBg2XQ0REREvXrILf119/HcPDw/jsZz+b8294eFj+SICRs2fP4urVq0DmUfeb3/xm3bdUL1++jB//+Mdy+rKyMvh8Phw/fhwPPfQQGhsb4XQ68eY3vxm33367nM4sbYA2F1euXCn6Raj5Wvf169fz1vFc/OY3v8nap+qf+mkwoaamxlSQauTd7343+vr6cODAAWzYsAGrV6/GnXfeCavVajqvWvQOF+stb3kL3vCGNwAArl69mtUbT0REREvfrILf+TA2NiZfzhKpD/X19aioqAAyj66j0aic/mMf+xj++q//GsuXL8fVq1fxk5/8BMFgEI888gg2b96MWCwmpzXjt7/9rey5TKVSeOyxx+DxeHL+tba2IhKJqIvBH/7wh6J7Wudr3YvVSy+9JHtYp6en8fDDD2dtk/Zv69atiMfjWLVqFT7zmc/A4XAAAKampnD69Gl84QtfQEdHB/r7++VyZ0MbPKfTaXnzJUxNTcl9uXLlStx555268URERLT03bTg9ze/+Q3Gx8eBTKDx7ne/Gw0NDbj99tuRTqd1vb4A8L73vQ9veMMbcO3aNfzrv/4r/H4/BgcHMT4+jqtXr8rPnpn18ssvy7xSNfViod3Mdd8Ir7zyigwiV61ahXvuuUedxNC9996LqqoqIBOIdnV14fDhw/jBD36AeDxuuuc3V57ze97zHvmU4JVXXsn6vvTPfvYz/N3f/R08Hg8+9alP5ezZJiIioqXrpgW/APDTn/4UqVQKy5YtQ0NDg0x5uHTpEsLhsG5abWqD2tP6oQ99SAZNZl2+fFn2FpeVleEjH/mIfElrod3Mdd8IL774ogwcly9fjr/6q78y1YtqtVrlt4DT6bTupbeysjK43W5T6RR/+qd/ivvuu0837O6778b999+PsswPZvznf/5nVj45ERER3fpuavB77tw5mS/7tre9DXa7Xb7opva6iS8flJWVwev14lOf+hQ++MEP4pFHHsFnP/vZWeX9ar+ycOedd+ILX/gCurq6sG7dOtx7773YsmUL9u/fj2AwaPrbwWbdzHXfCN/+9rflTco73/lOfPGLX8RnP/tZ3H///fjgBz8In8+HJ554Al/5yldkmkMqlZI5zDU1Nfjc5z6H+++/Hx/72Mfw1a9+FXV1dbh+vfCX+VauXIk9e/bg85//PB544AHs2bMHjz/+OCorK4FM2smZM2fU2bBq1So88cQTOH36NJ5++umb9o1kIiIiWjg3Nfi9fPkyXnjhBVy7dg233347LBYLrly5gnPnzqmT4nvf+57M0Vy1ahU2b96Mz3/+8/jwhz+Ml156CRcvXlRnKWh8fBzPPPMMUqkUkOl5/NCHPoRdu3bhsccewyc+8Qm8733vkz+xO59u5rpvhG9961sIhUIyR7e8vBwf/ehHZVDa0tKCuro6vPGNb5Tz/OhHP8L//M//AJlPyP3Zn/0Z9uzZg23btsFut2NsbMzUy2w//OEP8eqrr+KDH/wgHnjgAdx///3yBcNUKoVvfvObOH/+vDob1qxZg9WrV+O2225DeXk5/vIv/1KdhIiIiJa4mxr8AkA0GkUymZT//9///V/dt32Ff/u3f8OXv/xl/PrXv5afn7py5Qp++MMf4rHHHst6ecmsU6dOYe/evQiHw0gmk7Ln8fXXX0cqlcKLL76IEydO6F6+my83c903QjAYRE9PD372s58hlUrJXttr167h//yf/4Px8XEcO3ZM5t5evnwZ+/fvx/PPPy9vCq5du4ZEIoGvfOUrpl/6SyQS+Od//mf86le/0rWV8fFx7N27F6dOnVJnAQA899xzuHDhAl5//XXMzMzgO9/5jjoJERERLXGmf+GNaDHT/sKb+mtzRERERMJN7/klIiIiIrpRGPwSERERUclg8EtEREREJYPBLxERERGVDAa/RERERFQy+LUHIiIiIioZ7PklIiIiopLB4JeIiIiISgaDXyIiIiIqGQx+iYiIiKhkMPglIiIiopLB4JeIiIiISgaDXyIiIiIqGQx+iYiIiKhkmPqRi9WrV6uDiIiIiIiWHFPBLxERERHRrYBpD0RERERUMhj8EhEREVHJYPBLRERERCWDwS8RERERlQwGv0RERERUMhj8EhEREVHJYPBLRERERCWDwS8RERERlQwGv0RERERUMhj8EhEREVHJYPBLRERERCWDwS8RERERlQwGv0RERERUMhj8EhEREVHJYPBLRERERCWDwS8RERERlQwGv0RERERUMhj8EhEREVHJYPBLRERERCWDwS8RERERlQwGv0RERERUMhj8EhEREVHJYPBLRERERCWDwS8RERERlQwGv0RERERUMhj8EhEREVHJWBTBr8/nQygUQigUgt/vV0cTwe/3Y2BgAG63Wx1FJrjdbgwMDMDn86mjiObM6/ViaGjI9DlctEfttIFAAMeOHYPD4dBNO58cDgeOHTuGQCCgjqJ54PP5MDQ0BK/Xq44iWlRMB7/aAFX7x4ZOxZqPi5y42DKYm3/zsX+odHi9Xmzfvh2nTp2Cx+NBT0+POsmiUVFRAZvNhkQioY6ieVBdXY10Oo3JyUl1FNGiYjr4BYB0Oo3+/n54PB75J4IQoltVMb2mXq8XAwMDvCGcJ36/33QgHggE2KN3E9TX1yOdTmNsbEwdtejU1NQAAM6dO6eOonlgt9sxNTWFSCSijiJaVIoKfonmQ2dnJ7Zu3Yp4PK6OMk08cQgGg+oomqP52D9Ei1F9fT0AsGdyAbjdblRVVbFXnZYEBr9ERFQS7HY7kskkLl26pI6iOaqpqYHFYsHFixfVUUSLzrK77rrrujrQiM/nw8aNG3HkyJGcaQ7ikePo6Ci2b98Oi8UCAAiHw3nzwHw+H1paWoDMtADQ2NgIZFIt1HW63W50dXXBarXKYYODg7IX0Gg8AMRiMXR2dgKZFx/2798Pu92OVCqFr33ta3jwwQflPIlEAvv27SvY+yXy3cS2qvOJOolGo2hpaUEqlcLBgwdzPhYyu7xi6xhKPQPQlcXv98PpdOL48eN4+OGHZT3kKm8gEIDT6ZT/19Y/CqwrEAjAZrPJ7dLuC0Hdbr/fj7q6OrkMbZ6hWG++dcJE3Yo6GB0dxcc//nEAwCuvvIKKigq5TCjtSDDaBgAYHx9HVVUVkslk1jzabZienkZbWxtOnDiB5ubmvHWLTFnFMQIT+18cEyMjI6iurs47r7p/crUNtR6Mjjux7HztRVs2l8sFp9OJS5cuYdWqVXJfIce5AAb7HZp9X1NTg7a2Npw8eRLNzc2w2+267c1XrlzUulfbUb56ENS2JrZzcHAQo6OjurakLj+XYtar7kujY6VQezRaXyqVwiuvvIKysrKsMovpx8fHMTw8LP+t3Rfadqedp1A5c+1fLXGMJpNJHD16VLdco/1eqG3kOubF+rXHt/aYM7s/hULnLRQ4Bsyc/8S2xGIxuW9y1Y1aL2J7jWIEMa32XFGorKIdqG1ULQcMyqKdxufzYd26dTh48CDWr1+fVf8AsH//fgDIqk+69c17z6/T6cSmTZuwa9cueDweDA4OorGx0VS+JDJBr/bCYrFY0NbWJt/y9/l86O3tzQpsW1pa5JvD4g5U5XQ6DXMCrVYr/uEf/kG3TLvdjv379+fNNfT5fGhvb5cvenR0dACZA0o7X1VVFVavXg2Px4PW1tasQFIwu7zZ1LE4MWlztl988UXdNDabDZ/+9Kdx8OBBuf5kMomuri5Z/+JtaZvNho6ODrn+lpYWuX4z69Jqbm5GLBaT03Z3d8Nms2HPnj3qpDkVWqfZurXZbPjIRz6CXbt2wev14sEHH0R3dzdSqRQGBwfh8XiyglgAiMfj2Lp1K/r7+5FKpWQ5HnnkEcRiMVRVVck6FJqbmzEzM4PR0VE5rK2tDdFoVG5DOBzW1S0yJ/y6ujp0d3fD4/Ggv78fbrfb1Fv2a9euBQC5fNF2Cs1rt9vx8MMPy7bR39+P2tpa3Xzr16/HyMiIbtkiX7qqqkpX3o0bN2a117Vr18ptf/DBB+H1ehEOh5FIJNDR0ZHz/YJgMAiPx4NYLCbbkXqcbdiwASdPnoQn80KWmXZsRNyEiW3p6OjQ9XSJ89P4+LisB7F/1HOP3W5Hc3OzPI5jsRg2btyIQ4cO4ezZs/AUcSwUs14zx7mQrz1GIhG0trYiHA4jlUqhu7sbra2t+OEPf4jy8nK4XC7dstavXw8AGB4e1g3Pxev1wu/367ZpamrKsJzq/jUiXnZbvnw5du/eLbc/Foth3bp1cpmizaptY+PGjTKX3+fzoa+vT3fe6u/vRzqdlu2hsrISALBu3Togc8yZ3Z+C3+83PG+J+UU7XrdunWyTYpu0PdyFliPqZsWKFVl109TUJM+RgUBAdywPDg7K7dW+7CbKJabt7Ow0VVaHwwGbzZbVRsPhsK7+zeyj6upqJJNJtLe3A5n67+/vR3l5OZqbm0Glrajg12KxoL29Xfe1B/VllFQqhaeeekreRY2OjiKRSGSdCHMRJ9GOjg6ZO2S1WtHQ0AC32y1PJNqTjugtrqurg9vtlvmgYrw4wJAJRNUTJzTL065XXJyMOBwONDU1IRaLyTvNeDyOkydPGh5czzzzjO7/qmKWN5s6rq6uxszMDKLRqBz2uc99ThcgWCwWfOMb35DD4vE4nnrqKUBz4WpubkZ5eTlOnjwp1x8MBnUnSTPr0goGg7oLViQSwfj4OGw2W96bD6186yymbi0WC4aHh+e1F0Bc7EUdQpMfF4vF5LosFgvGx8d1vRs9PT26uvV6vaitrcXIyIisz6GhIUQiEdn+83n55Zd1dR0MBhEOhwvOm06nceLECd06JyYm4HQ65T7q6enRlX10dBQzMzOwWCxZ80YiEd1FFZmyqT0788FiseD8+fO6wNlMOzaivtATj8fx6KOPyt6zpqamrJ7HoaEhnDp1CrW1tfLCjEydatcvboKmpqZkPYhjIdd5C5pzh9n1mjnOxXSF2qMRsd+1x5XD4YDT6SzqZShxc3j8+HE57OjRo4BBOdX9a0R0iixfvhxdXV2yHNFoFBaLRb4Mt23bNiSTyZy9geI6pNZ3ZWWl7sW/6upqWYdiukgkgqmpKVPnNq/XC7fbbdjjKWzZsgU2m03XwysCSHFuMbOchoYGWK1WVFdX6+omkUjAZrOhoqJCLle7D4PBoFymODYA4NChQwCA3bt3y2nNlFUE4WIZYjrxgqK4oSi0j0R7s9vteOGFF2T9T05OIp1Oo7q6GvFMhwXfbyhNRQW/Rl97UBuOenKLx+NIJpOmDnZkHhNHIhHE43EZsAriAEWm91ME4KKnWHsCg/LtSfFoRJ0GmWBSnFTj8TjOnj0rx1VXV2um/P9cLhdsNpuu1w7KwSWYyTErZnmzqeOLFy/Cbrfn7XFQg0cAuHTpEpLJpHy053K5MDExkXWh0Z4kzazLSCAQ0O1TsTwz8q2zmLpdiM/0iAueNlBsaGgAlF6wdDpt+Ba6tm7r6+uzeouR2X6jtq1S9y9MzmvUNrTlMiLapdG8Fy9ezJpX3HQuBDUP0Uw7NpJIJOB0Og17ykU7M9qHY2NjSKfT8oUrGNSpaI/F1sNc1wuD4xwm26MRce7WBuy5jsFcxM3h2bNnddcXo3LCYP8aEXWgveGA0mMpbi616/VlHtOLesvVg+1yuXTnensmpU6dTrt/fQafEBVtS30y5NCkWUSjUbjdbtTV1clrpuByuVBeXi7rpNByoKkDtW7smhxpcTyrN1PQ7K/ly5fD7/djampKFxuYLau4QVGnE8cGMtf1QvtIBNHaDg/t8s20F7q1FRX8LnYWiwWVlZXyhNLe3g6LQfrDfKisrITVas3qCTdKyUgmkwXvLItZ3mwEg0H5qDoUCs3qByPEXbr2xkMbrArFrsvv9yMUCgGax/GiN9+sfOsspm7N3KjMRjQa1T0KdrlcWTcxZtjtdtjtdvT19em2Rc2huxkcmcea2nKJ3hej8qoB90JdkNLpNKanp+X/zbZjIz09PTJVJKQ8+aqsrFyw800+N2u9+Zw7dw4Wi0Xe5NXX1yOZTGYF3bmIIKWlpUW3f/r6+rICX3X/5mK32w0Df22AJ+pSu16RTrV161Yg0/GiHruiTYlzvVEvqaAtfzCTsqP9E2k5NptNd+z09fUhmUzC4/EgGAyioaEBFosl6wZF9I5OT0+bWg5y1I26TQDw5JNPYmZmBu3t7bp0GrG/3vSmNwGapxiCmbJq/69Op01lLLSP4vG4nF7d1+r6qHQt2eA3HA5nnTQ8Hg9GR0fR1NQEKD3VxQRT2p7AXBfk6elpXW6n+pcr7yyX+V6eEZEOInL8/H5/1h18LolEQt75a1NOtH/aPEuz69I+kjPKpS1GrnXeiLotRDwKrq+vl70k6ok5H3FxTiQSSGRyYNXtEE86ZmOuPd5utxuHDh2SF1XxF4vFFqS8c1FMOzYiAhaRv3no0CG43W5MT0/L3qkbaT7Xa7bXudBNokiLcblc8hG0NsWnENHTJ/Ls1b9izxVGgRwM0o+qq6tl6p1RO831IxmiB1MMF9Opx7i6vlzE/Op1Trvd2h5rLZfLldUDmm85om7UMhltazyTKjA4OKh7AiKCytOnT2NmZgabNm3SPYXMV1btcKP0NSjfki60j2CQgiLkKgeVniUV/I6NjSGVSgGZk4g2mPJ6vdi7d68uZ0g81hQn31ysVqt8lCUez6BAj4I4eLSPE+divpeXTzyT45dOp+VJC4DhSyrqY6lEIpE3/1CVa135FNpfhajrvJF1m0s88yjY6XRi8+bNSCaTWb0jFoslq4yiLsRF++LFi4b7ySyj+dTHtbMhena02yQuqrY8j8hvlmLbsZFIJIITJ04AmZ6pfO0sV8/XfCh2vUbtRz3OYbI95hONRlFVVYVPfOITsNlsWY//8xHpDWo5Z8sokIPBY3AzKUBGRH6zqGdR7+r1I1fKhCpXekchIiVA7B8zyzHa98jRdgSRHy9SuURQ+fOf/1y+S7FlyxZ1Nh1RVtE7nqttqSkTZvaR0TlNLN+oN55Kz5IKfiOZlz9g8PJde3s7VqxYIQ92aPKCjR6VqcRjTO2j8EgkkrNnSpRF/cqCw+HA448/rrvrNWO+l6fau3ev7mbB6ORssVh0d+xutxttbW26fDFx0t65c6euTD6fT5bbzLoE0cOjvcht2bKl4P5S5VvnXOu2mAtxvkDk3LlzsNlseNe73pXVyyKoN3V79uxBeXm5rH/Rg6z9Ago0N3+FOJ1OXR34M5++UnMri6U+tkSm7FevXkUymTRsL0Z5s6pigv1iAloz7djIgQMHdMvX/mhCJBLByMhI1tczvF4vNm7cmPd8MhfFrtfMcS4Uao/5iF63hoaGogOOeObdC23voqDuAzNyBXLqY3CRI63WTyAQgMPhQCSTv699QTQQCOCOO+7I6sFUexgDgQDcbrfu5c9ctDfL6vEq/i9SS0RA7fV68bd/+7eApgffzHLUOhC02+BwOGT5ofRgQ0kFGTJ4AddMWY1uULyZL35MTU3JJ3SF9pEjRy+/unxHJk1LfWmfSkNRwa8acIq/fBeL+dbT0yM/KaMlXiwQvX6ihxiZFIl8aQ+pVArPPfecbpj6Jq8Rkf+nzT0Sn7+ZTSAx38vTWrFihW7fqd9jROYk9NOf/lTmhvX29ma9uBCJRLB7924A0OVxNjU1yQuimXUJkUzvmcjVDWVyf/PtLyOF1jmXutVeiEOhUNano7S0gXZI8/IKMo+Cp6amDC/CyDxpOHXqFNra2mQZq6qq0NPTI7cjnnnsODU1hd7eXjldW1sbzpw5oy4yy8jICJqamuR8brcb/f39Od8CN2so82UBbf0mEgk89NBD8pua2vaybt26gr1f0AT77e3tGMqkteQiltfb21swz9xMOzayatUqXb1rvz0NTe652+2W04hPTBU6n8xFMes1c5zDZHvMRxwLq1atynqMbYbRNoVCIbz22msFg0eVUTAqhmsfs0ciERw8eBA2m01XP9FoVNaNeDlatINoNIrz58/rlmu322G1WnVtxWazYdeuXabqDplzVjjzaTmxDGfm29DQfDVFnGs2bdqE06dPA0q6XqHlqHUgaHOhkflEntge8Vm9np6erKASBjeXRmX9l3/5F911XPTCi2lCmjasTdMotI9ypZyovfxU2kz/yMWtxqH8yIX2AlaKRA9grk/H0PwQgbOas+jV/KiA2YsjUbHMHufz1R7Nru9WIq4tsVgs68ZjofmVHwNaSnyaH6VYamWnpaeonl8imj2R46b2SBDdityZXE0zT1duJblyaBeaI5PTqn4mbKkwytMlWigMfoluEPV7m0S3MrMvd91qcuXQziefz6dLvxK9zQB0PwqyVOTK0yVaKAx+iRaY+PEOm81WUo9/qTT5M9/tXqqP3+cqVw7tfBobG0NVVZXMjRXf7lXztpeKXHm6RAulZHN+iYiIiKj0sOeXiIiIiEoGg18iIiIiKhkMfomIiIioZDD4JSIiIqKSweCXiIiIiEoGg18iIiIiKhkMfomIiIioZDD4JSIiIqKSweCXiIiIiEoGg18iIiIiKhkMfomIiIioZDD4JSIiIqKSweCXiIiIiEoGg18iIiIiKhkMfomIiIioZDD4JSIiIqKSweCXiIiIiEoGg18iIiIiKhkMfomIiIioZDD4JSIiIqKSweCXiIiIiEoGg18iIiIiKhkMfomIiIioZDD4JSIiIqKSweCXiIiIiEoGg18iIiIiKhkMfomIiIioZDD4JSIiIqKSweCXiIiIiEoGg98iORwOHDt2DKFQCIFAQB09Jz6fD6FQCKFQCH6/Xx1NRfJ6vRgaGoLP51NH6Yh9Ot/781bm9/tx7NgxOBwOdRQREdGiVnLBr9/vlwFmKBTKeQHPNZ3L5UJ5eTkAoKqqCm63W5215LndbgwMDOjqT/wVCkRpdvx+PwYGBtgeiYiICii54FdVXl4Ol8ulG+ZwOOB0OnXDhGg0ipmZGQDA1NQUIpGIOgllhMNheDwe3V8wGFQnIyIiIrphSjb4TaVSSKfTsFgsqK+v140TvbvpdBqpVEo3Lh6PY+vWrfB4POjs7NSNI5oNt9uNQCBg+ATCrJ6eHrS2tvJmjIiIqICSDX4tFgvS6TQAwOl06gKP+vp6Od5isWjmIpo/Ite4t7cXyNxYERER0cJadtddd11XBy42O3bswNq1awEAZ86cweHDh9VJTPP7/WhsbEQqlUI8Hsfq1auRTqdx5MgRDA0NweFwYP/+/bDb7Th//jwcDgesVisSiQT27duHiooKdHV15R02OjqKj3/84zJwjsVipnqJfT4fWlpagEzKAAA0NjYCgK6MgtvtlusVBgcHZWqB0Xgo5dFOU6js2mnD4TB6enp0yxXEdOPj4zmnQY7yqcv1+/1wOp2yXABkPajzp1IpHDx4UPZ+er1ebN++HadOndKlW4g2IESjUVRXVyOZTOr2k5hf1IXY3yJIzVe2QkQZ1GXmo20fULbX7/ejrq5O/t/r9aKtrQ0nTpxAc3OzTONR60gIBAK6VB9tOzIitv348eN4+OGHc+4DGJQbyvJFWU+ePInm5mbY7XaEw2EMDw+jq6sLIyMjqK6uznssEBERmbXoe3537NiBDRs2YOXKlVi5ciU2bNiAHTt2qJPNyvnz57NSH7QpD+fPn1dnKchut+OBBx7Q9Rg7nc6iX/RqbGzUBWgWiwVtbW3yhSafz4fe3t6swLalpUV+KaKmpsaw59rpdBp+2SBX2cW0DQ0Ncn1qb3mxRPnHx8dlPnB/f79MAdCy2Wz4yEc+gl27dskvOHi9Xvj9ft38U1NT6OrqyvvSVyAQQF1dHbq7u+HxeNDR0YHq6mrY7XbddD6fD+3t7Th16pScDgD279+v226jsuUjpnG73ejv78fWrVtNB74bN25Ef3+/3N4XX3xRnUzHYrGgvb0d0WhUbkMymcTOnTvlNojeZ5vNho6ODng8HgwODqKlpaVgm7XZbPj0pz+NgwcP6pav3QfiJVFR3x6PB+FwGBs3boTX69Utb8OGDTh58iQ8Ho/uBkgEzmL+iYkJ3bFARERUjEUf/Ioe30LDZuPChQvy5TURzImUh5mZGVy4cEGdxZTBwUF5kRfUl+oKSaVS6O7uRkdHBxKJBADAarWioaEBbrcb69atAzI9s9qgAgDq6urgdrtlkCjGezwexGIxIM+XKsRLat3d3TLfuba2Fl6vF2NjY3JYLBYrGLQ1NjbqvvQgvkbgcDjQ1NSU1cs7NDSEU6dOyfUJFosFw8PDuvU1NzdjZmYGx48fl8OOHj0KAFi/fr0cpuX1elFVVYUTJ07Insl4PI6nnnpKl9styheLxWTvZDwex8mTJ1FeXo7m5mY5rVHZcgkEAmhvb5c9s4UCZa3q6mrMzMwgGo3KYZ/73OeyenBV4XBYtw1nz57VveTZ3NyM8vJynDx5Um5DMBhELBZDU1NT3hsci8WCb3zjG1l1Cc0+iMfj6Ozs1JVzeHgY6XQalZWVcpjFYsH58+cN6yQWi+nayejoKCwWCxoaGnTTERERmbHog9+FdPnyZRkMlpeXo6mpST76jcViuHz5sjJHYSJ1AJmLvAiqbDYbHA5H1ifUQjm+6Ts+Po5IJIJ4PC7LKKg9sGI5oqfYYrGgpqZGTi8CrVAoJLdPnQaZsotgMhKJYHx8XE5bWVmJSCSC1tbWrJ65XNSvPYgXslwuF2w2G86dO6fOgrGxMaTTad1LiOl0GpOTk/L/brcbVVVVOHv2rC7ovHTpEpLJZFYvrlBfX49kMqkLIKGZTxDlE/tRmJycRDqdRnV1tRymli2fJ598EolEAo2NjVm924VcvHgRdrsde/bsUUfllE6ns+p4enoaAGTg6XK5MDExkRV0JhIJ2Gw2VFRU6IZrqcE48uwDbRsUTyy09YjMNhpR12G0H4iIiMxa9MHvmTNn1EGGw2br3LlzMvXh7W9/O2w2m2HQsJSIYFX8aEZ7e7th+sPNUllZWVR5kskkLl26JP8v0jlaWlp0NxF9fX1ZQZdWvnFalZWVsFqtaG9v1y3fKM1ELVs+8cyXQjo6OmCz2RAq4odSgsEg+vv7UVtbi5CmF30uHA4HbDab7gZKvZGaK3fmm8/bt2/HkSNHsp4qCOl0WgbmREREC2nRB7+HDx/G6dOnceXKFVy5cgWnT5+e0wtvKu13e9esWQOr1WrYozVfenp6dL2hZntRc1F7V8Xf6OgompqagExgIXJFtakYhYhgcb4Dk+npaaQzX9qYDdHzJ9JL1L9cLxeK9JFCpqenkUqldPm187W/oAmCu7u7UVVVZToIFmksIrfW7/dn5c0WIx6PI5lM6lJntH9z+XSaqOtt27YhmUxi165dWb3LREREN8OiD36RCYA3b96MzZs3z2vgi0wAoKYVmMlnvZm0ubdut1sXAHm9XuzduxcVFRWw2WwAIB9rO/L8eAcywa7IZ/V6vaitrQU0j/ZFL14oR6qGWSJNQP2+MjIpHRaLJW/Pu3i0Xmwe9cWLFw1/1ET7q30oUL75JNJI+vv7sXz58rz5tVoit1bNm52NRCKRM/+7kHx1mSuFAUraDhER0Y22JILfhSZSH5AjT3KxUfNxtY/n29vbsWLFCl0eq3isXSgtAJk368VyRGrCyMgIIpFIVq6x2WBNFYlEMDIygsbGRl0Q7fV6sXHjRkQikby9hOLFLafTmRWEHzhwIGcgNzo6ipmZGd2XAhwOBzZt2qRLwxD129jYqPvigcPhwOOPPz7r7c5laGgIDz30UN4brr179+pucsRNwlx75IeHhwFA9wUIZL4uUehrDxaLBZs2bZLzud1utLW1YWZmRuZLJxIJXZCsfVmTiIjoZmDwq6Q+LGTKw3zq6elBf39/VvpAKpWSXx9Qv2IQDofzpj0kEomsbdd+j7XYrz3kI3JY3W63LnA/deqUqbQCo/lDoRBee+21nI/q4/E49u3bh2Qyid7eXoRCIXz5y1/G6OhoVkpET0+P/OSXWHZfX9+st1v7wpfRn0hpyGXFihW6m5yNGzfOy7duI5EIdu/eDQDo6+uTy29qasp64U+VSCTw05/+VM7X29uLqakp3efbenp6MDExIcve1dWFr33ta1k5v0RERDfKkviRC1o4buVHLsz+4AIRERHRUsSeXyIiIiIqGQx+iYiIiKhkMPglIiIiopLBnF8iIiIiKhns+SUiIiKiksHgl4iIiIhKBoNfIiIiIioZDH6JiIiIqGQw+CUiIiKiksHgl4iIiIhKBoNfIiIiIioZDH6JiIiIqGQw+CUiIiKiksHgd5FyOBw4duwYQqEQBgYG4Ha71UmoSIFAAMeOHYPD4VBH6fh8PgwNDcHr9aqjyIDb7cbAwAB8Pp86ioiIaNEpueDX7/cjFArJv1zBkNnpqDC1LlmnC0sEo36/Xx1FRERU8kou+FWVl5fD5XLphjkcDjidTt0wmptUKoXu7m54PB75t3XrVsTjcXVSIiIiogVTssFvKpVCOp2GxWJBfX29bpzL5UJ5eTnS6TRSqZRuHNF88Hq9OHTokDp4XkQiEbS2tqKnp0cdRUREVPJKNvi1WCxIp9MAAKfTqXv8Xl9fL8dbLBbNXETzY3JyEg6HA6FQiLmyREREN9Cyu+6667o6cLHZsWMH1q5dCwA4c+YMDh8+rE5imt/vR2NjI1KpFOLxOFavXo10Oo0jR45gaGgIDocD+/fvh91ux/nz5+FwOGC1WpFIJLBv3z7E43EEAoGstIhUKoWDBw8iEonA5/OhpaUla7jb7UZXVxesVqtuuBFtOVKpFL72ta/hwQcfhNVqBQDEYjF0dnbq5hHbJmjLbDQegG7b1WkGBwfhcrnktuaattC2+P1+1NXV5Z0GBuVTlyvqb2RkRJZLWw/q/OFwWNf7GQgEYLPZdHWi3SfIrPOFF17Afffdp9tWMb92vw8ODiIYDOqWk6tsuYi2om5rIdr2IYjtFWUZHx+X2x8IBAAAo6Oj2L59u7ypU+sImV5p7TRqO1Jpt726ujrvPjAqt7p8UdZoNKqrm/Xr18PpdOL48eN4+OGH8x4LREREuSz6nt8dO3Zgw4YNWLlyJVauXIkNGzZgx44d6mSzcv78+azUB23Kw/nz59VZ4HA4YLPZ1MGwWq3o6uqC2+1GMBhEOByWw9evXw8A2LZtG6xWK9LpNE6cOGE60LFarfiHf/gHebFHprdavNAkvgyhBrZ2ux2HDh2SX4rQBhyCxWLB9u3bDb9s0NLSogv2tNNq86KtVisaGho0cxZHlL+urk6XFzw1NQW/359VtrVr1yIajcLj8cigJxAI6Obv7++H2+3O+9KX1+uF3+/H+Pi4XOfIyAjWrFmjm06Uz2azoaOjAx6PB4ODg2hpacnqtTUqWz7BYFBua29vrwz88hEBZDKZlOXu7+/Hq6++qk6q43Q6sWnTJuzatUtuQ2Njo24bfD4f2tvbcerUKXg8HnR0dAAA9u/fX/DlRHGDKsoklq/dB83NzYjFYnKa7u5u2Gw27NmzR7MkoKqqCqtXr4bH40Fra6s8Vux2Ox5++GEcPHhQbndtbW3e/UxERKS16INfcUEtNGw2Lly4gJmZGUCT+iBSHmZmZnDhwgV1FsTjcWzdulVevMVFHkoQePz4cSQSCQBAXV0dfD4famtrgUxOprZH0YxwOKxbFzRl3rJlC+x2O9LpNPr7+2VQkUqldMF3Z2enrtz9/f1Zwb+W9iU1EcxbLBY0NzcjHo8jFovJ6cbGxpS59axWK3p7e3VfexABS3NzM2w2W1bP55NPPomZmRk0NzdrlgS8/PLLsscVmSC2trYWIyMjcv6hoSFEIhHU1dXl/Excc3MzJiYmdD2T2hsX7XTl5eU4efKk7J0MBoOIxWJoamrSBYVq2czq7OxEd3c3qqqqCqZCVFRUwGazIRqNymFDQ0P4p3/6J910qlQqhaeeekpuw+joKBKJhHzh0+FwoKmpCbFYTG5DPB7HyZMnUV5enrUfVC+//LJhXWr3QTAY1E0TiUQwPj4Om82WFVw/88wzuv8j8/RBe+M4NDSEiYmJrNQlIiKiXBZ98LuQLl++LAO48vJyNDU1yd7MWCyGy5cvK3P8f6I3MBQKyRQHAKiurgY0QUM6nYbVakVLSwssFgsSiQSOHz8OaD5JpQ0Ijb7pm0qlMDw8DAAYGxvTvYRXXV0ty2yxWNDe3o5QKITe3l7ZU6z2+AYCAYRCIbS3t8tH2+o0AHTB5PDwsFyvCFR6enqyeuZy0QbS4k8EQS6XC1NTU1nLEAF2VVWVrk7ETYVQX1+PmZkZjI6O6oZfvHgRFosFNTU1uuHI1H1VVZUugBQuXryo+7/L5cLExETWDUsikYDNZkNFRYVu2GyIXmir1apLpzBy6dIlJJNJbNy4MatXPB+1juPxOJLJpNyfLpcLNpstqx4nJyeRTqdl284lV10a7QPRBkOhEBobG7PqMZlM4tKlS7p5AGBmZiZrPUb7gYiIKJdFH/yeOXNGHWQ4bLbOnTsnez/f/va3w2azIZ1O49y5c+qkgCZg7evrMwwYtUTvo9bZs2dz5k4uFJvNhg984AMyWFfzlW+mXGkk+ajBqd1uh91uR19fn+5GQntToqqpqTH1MqMon9Pp1C1bBG0qtWyFeL1eDA0Nob29HZFIBB6PJ2/gC83Th4mJCXmzMx+P/SsrK2G1WuUyxZ/2Rmqu/JlvPkOTHqH2tCMT/N7o44SIiErDog9+Dx8+jNOnT+PKlSu4cuUKTp8+PacX3lTRaFSmPqxZswZWq9Wwd0lYv369DAREKoJIH1B5vd6sXtx169bJYZHMJ6m0vaFmelFzMepd9WS+p/snf/InMlgXOZciNcIMbbA4n4GJ6H2ci0QigUQiIfNxtX8iuFSJ3sxCRPm0earzsb/ETZQ26FVfPCtEpLGI3Foz+cL5TE9PI5VKydQZ9a/Y8gnpdBqTk5PyeBgcHDSVD01ERLQQFn3wi0wAvHnzZmzevHleA19oHq1rxWKxnMGdCCC1qQgiT1jL4XBg06ZNsFgsSKVSeO6554BM7uu2bdt0087FxYsXZfmNln3gwAG43W75yDqdTsvH2g0NDXl79LT5rM3NzXIbxaN90YtnlKpRjEQikZXaAM2PjaiP61UXL140/LGSfETqgNE86rBc5ZuLmpoaxOPxOQWVgsitNcqbLcbk5CSQac+zodabGJYrhQH8QRkiIroJlkTwu9BE6gMywWGulAdoAj/tC1xGj7/FS2jI5M5+4xvfkPPW1tYWlatZiDYfV308f8899wCax/HavOB8aQHIBPoilUAEKCJnWRu0zPVrD8ePH0cymZRfyxD27NkDm82Go0eP6qZXjY6OYmZmBm1tbbr5vV4v9u7dq5tWiMfjOHv2rO6rGch87UANxsRNzs6dO3XBpc/ny/tiWj5DQ0PYvXu3OtgUt9uNAwcOyP+LfTHXHnnx8pn6BQiHw4HHH3+8YGDtdDp18/n9fjidTpnqI3rbtUGy9jghIiK6ERj8KqkP+VIeAKCnp0fXU5xIJPD000/rHqFrvzebSCQwOjoqgy1kAlA1UJsLkT6h9mADwPj4OCKRSNZXDFKpFL761a/mTXt47rnndOMTmu+xanvMzXztIR+Rwyo+9yUCd5vNht27d+ft9UWe+dva2vLmhweDQZkyIOZxuVy6L2ogU78iUNXmFTc1NWW9HGaW9oUvo79CKQz33HOPnLavrw/JZHJeUgl6enrkZ9y0y8/3NEQYGRlBU1OTnM/tdqO/v1/mMEciEZw4cQK1tbVyGmTSh4iIiG6UJfEjF3TjaAP3Ql8dICIiIlpq2PNLRERERCWDwS8RERERlQwGv0RERERUMpjzS0REREQlgz2/RERERFQyGPwSERERUclg8EtEREREJYPBLxERERGVDAa/RERERFQyGPwSERERUclg8EtEREREJYPBLxERERGVDAa/RERERFQyGPxSyQoEAjh27BgcDgcAwO/3Y2BgAG63W510VhwOB44dO4ZAIKCOWjA+nw+hUAihUAh+v18dvagthrIXUwYx7dDQELxerzqaiIgWqZILfn0+X96LVaHxRF6vF0NDQ/D5fOooKiEulwsAYLFYUF9fr44mIqJFquSCX7qx3G43BgYGlmygGAgEbmjPbS5erxcDAwO8KctDtDWj/SVuWAr15hYjGo0CANLpNM6dO6eOvqmK3V6/38+bfiIqGQx+iYokgoRgMKiOopvE6/XC7/fDarWqo+Dz+dDe3g6LxaKOmpNgMAiPxyMDzcWi2O0NBAJobGxUBxMR3bIY/BIRERFRyVh21113XVcHLjY7duzA2rVrAQBnzpzB4cOH1UlM8/l82LhxI44cOWLYW5NrvN/v1/WOhMNh9PT0yP/7fD60tLTI/wPA4OCg7B10u93o6urCyMgIqqur8y4rl0JlEI97o9EoWlpakEqlcPDgQUQiETkN8pQlnU5nbTdMrFcsT9vrNjg4CJfLBafTKYcBQCwWQ2dnJ2Awn1per9eLtrY2nDhxAs3NzXJZ6nRG1GVDWTcy9WWz2bBv3z7E43H4/X7U1dXh4MGDaGhoyNqfYr01NTXYvn07Tp06pev9VespGo2iuroayWRSt14j6ryijh0OB/bv3w+73a6bXt0HgrYdimm8Xi+2b98uewJFuzSqI7Vu1eUByGovk5OTuuXk2seJRAKjo6P4+Mc/LsuinVZdl3b71PpJJBJyvwUCgax2BgCTk5NYvnx5Vt3BYPmCWgZothfKMa0tkxiuDtMeA+rxZbRvRbnU7c213ueeew733nsvrFYrvvOd76Curs709qrtQhDlrK+vN1xPvvajLaeoS+0wIqLFYNH3/O7YsQMbNmzAypUrsXLlSmzYsAE7duxQJ1tQgUAAdXV16O7uhsfjQX9/P9xut8ynczgccLlccrzH40E4HMbGjRuzcuhEEC+mGxwcRGNjY8HcvEJlEKqqqrB69Wp4PB60trbmDRDFRV6UZWJiAm1tbbqvHRRar7gAjo+P67YJADo7O9Hd3Y1UKoXBwUF4PB4Z6IjH1Nr5pqam0NXVpVu/xWJBe3s7otEoPB4POjo6kEwmsXPnTvmVBiPr16/HyMiIXHZ/fz9qa2uz6isX8Ug7FoshFosVrE+1njo6OlBdXW0YiKjUebV1HI/HsXXrVvT39yOVSqG/vx8ejycrkMnF4XBg06ZNWYGvz+dDb29vVpqA1WpFb2+vYY52Y2OjLiCzWCxoa2uDX0k3cDqdhvPb7XY88MADumDL6XQa5ugK4osZ2vUis6xDhw7p2sp8U7cXmWPGaNuMtLS06IJyi8WCTZs2weFwGAa+yKwzFAoZrteo7a5ZsyZrHy4EdT252k+uchIRLSaLPvgVwWKhYcUQAZX4pJH2T+3t83q9qK2txcjIiAx8hoaGEIlEUFdXB7fbjXg8js7OTl1gNDw8jHQ6jcrKSs3SgJdfflkXuASDQYTDYbksI2bKoPXMM8/o/p9LLBbTlWV0dBQWiwUNDQ2AyfXW1NQAgO6Fn2AwWLCnp7m5GTMzMzh+/LgcdvToUSATuGqFw2G5vHg8jrNnz6K8vFy+bW+kp6dHV4ahoSFMTExkBRvzwev1oqqqCidOnJD1FI/H8dRTTyGVSqmT65ip47nYsmWL3GZRj263G+vWrQMyvXwioBY3KgCwbt26rHWnUil0d3frprNarZiYmNDd9EDzJQRVOBzOWldtbW3WTaIgym9UTqvVivXr16OzsxP9/f1Ip9NApl17PB489NBD2Lp1q65cYv1mbh7E9qrb1tTUlPfGS0gkEujo6NBtq7bdXr16VW6TJ3PDLGjXHYvFAMCwPWin++IXv1jU9orcdbF8UcdGOcza9YyNjcn2I+paW35RTnEDWehcQER0oy364HchaC+k6p/2wgEA9fX1mJmZwejoqG74xYsXYbFYZPAHzRvWoVBI9opUV1fr5hNviGsZLUurmDIkk0lcunRJN10ualkmJyeRTqdlmc2sd3JyEgCyeozzcbvdqKqqwtmzZxGPx+XwS5cuIZlM6gJUozfpp6enASDrxkIleg3FjY3T6YTNZjMVuBSjvr4eyWQyqz7F9uRjpo5na9WqVairqwMygZi40WhoaJA9dpFIRAY6kUgE4+PjQCaoFTdBwvj4OCKRCCKRCKampoDM/hFlHxsbyxvsa8ugXZfFYjHclw6HQ/acam9YtT2OC3EzI4jtRebGMJFIAABsNhsqKiqUqbOJ9m20rfF4HA899JAuyDx37pwM4LXrFu3KqD1op1tI2vVo24/T6ZTHl+itNionEdFisuiD3zNnzqiDDIctFLvdDrvdjr6+vpw9xO7MJ5a2b9+OI0eOwKP0bM2VmTIIyWRSF1DOhZn1RiIR7N69G8lkEr29vQiFQgUfC9fU1MBisaClpUW33L6+vnkLZgKBAPr6+nQ9U6KHa77Npcxm6ni2Vq9eLYOUWCw2b+3CjIW4yTByo9azEHyaH9QIhUK6LzSI9AdtWzC6Sbh48aLu/wulmPUYlZOIaDFZ9MHv4cOHcfr0aVy5cgVXrlzB6dOn5/TCW7ESiYR8fKn2Eoue3m3btiGZTGLXrl1ZjwvNSqfTshdVZaYMC8HsekVeqifz6LNQ3p/oYRZ5wOpfoZfDCvH5fKitrUV/f7/h4975JnoEZ8NsHc9GNBqVZXO73TlTC24WcdOQTqdlb34u2sfu2r+tW7fekKC+oqICNpsNKPLpSi5GL8guRSKtQv1jqgMRLWaLPvhFJgDevHkzNm/efEMDX2R6PArllxrRPhrUMlqOy+XKe0GdbRnmajbr7enpQSwWy9sbKtIBilnuXIlUi4WQq55cLhfKy8t1w1S55p0Pr776Kk6ePIl0Og2L5mUrbXqCNo/U7XbLNIlUKoWxsTHd8ubKbrejubkZ0OQ6I8+NXzwel731VqsV27Zt040/cOCAYapNvt7gfO1Spa2b9evXy+N5Pp6uiP2tvfExyltW/4oNKovZXrM9ttr2o95Ueb1e7N27VzM1EdHisySC35tpdHQUMzMzWTmt2pN8IpHQBTDaF4pU6pvwfr8fTqczK/9Vy0wZFoKZ9aplEEGm6HE0CnTFS2tOpzOrhzhXQFMM0Yuo/cnZbdu2Gd6MFJJIJFBVVZW3TEb1pH5lIRejeWFQryI4LPZndMWLfsgEQnv27EEkEsHIyAig+bpDSMml1b6AN59Eqov2EX++dQ0PD8tAS5tfGgqFcM8998jpxNMEZLazr69PfkVienpajhPLUNudEW3diHzWVColX8ycC3F8aFNetHWibqvZMmMW26t9ctHS0iJfhMtFzWHWvjzc3t6OFStWAJq0jkJpUERENxqD3wLEI/2pqSl5IQyFQmhra5O5xz09PZiYmJAXga6uLnzta18zzPkdGRlBU1OTXI7b7UZ/f3/eHh0zZVgIZtd73333yXG9vb0YHx+X6QbaQDcUCsmAJBgMyk96iXlDoRBee+21nIGQWUNDQzh16pQubzIajc4q53d4eBgA0Nvbi4GBAcMgOB6PY9++fbq85y9/+cu6l6RyMVvHIuAQ25QvmFEdPXpUF0D6/X4Eg0HDvHSRXpCvPc5WIpHIeimw0DdgI5EIWltbDfed9iWsSCSCEydOyKBPS7SHYmnTRmDwDeS5EE9IFkKx2zubsvT09Oh6qoVUKiWPGSKixWpJ/MjFrcCt+WGJfBd7oluJaPfWzI9ciB+mICIiulnY80tEREREJYPBLxERERGVDAa/RERERFQymPNLRERERCWDPb9EREREVDIY/BIRERFRyWDwS0REREQlg8EvEREREZUMBr9EREREVDIY/BIRERFRyWDwS0REREQlg8EvEREREZUMBr9EREREVDIY/JYAr9eLoaEh+Hw+AIDb7cbAwAD8fr86KS0An8+HUCiEUCgk90E+6v6i/LxeLwYGBuD1etVRN9xiKIvP58PQ0NBNLQMVJo7zUChk6lxsdN4OBAI4duwYHA6HbtqFUGx5aWkR7atUrjsMfm8B4qR0o06CxTI6aZulPeEGAgF19KLn8/mwceNG9Pf3w+PxIBgMqpNQifH7/RgYGIDb7VZH3RJuZEC2VHm9Xmzfvh2nTp2Cx+NBT0+POsmistTKS1QIg99bQH19PdLpNGw2G1wulzp6Sfvwhz+MI0eOoKOjA8gE0kuJy+XCzMwMotGoOqoofr9/UQcUc+nxzDXvYt/mW83Nqu+btd6bSZyzx8bG1FGL0lIr71zdSm0y1/m11DH4XeIcDgecTieef/55JJNJ1NfXq5PcdJFIBK2trbPqLXj++eexfft29PX1IZFIIBKJqJMQLSk9PT1obW29ZdtyZ2cntm7ding8ro4iIloUGPzeQO94xzvQ2tqK1tZWvOMd71BHz0pzczNsNhu+//3vIxaLwel03hJ3q4LIXeSjNiIiosXN5/MtiRTFZXfdddd1dSDNv9bWVmzevBlnzpwBAKxduxbPPvssBgYG1EmLIhpZZ2enLi9Lm1uqDne73ejq6sL4+LguoBTTWSwWAEAikcC+ffvy9uCI9Y+OjurmDYfDctna9R0/fhz79+9HMplEZ2enblkiP/bIkSMYGhqC3+9HY2OjHJ9Op+U4rUAgAKfTKf8/ODgot9/r9aKtrQ0nT55Ec3Mz7Ha7rmxG5mN5al0CwG9/+1tcv34dr7zySta2a/fR9PR01r+1y8lVDw6HI2fdBgIB2Gw2uT/9fj+cTieOHz+Ohx9+GFarFQAQi8V08xaaTqzTbrfLeaDZ/2Lfi/nMzPurX/0Kb3/7201tMzT75MSJE3K8z+dDS0uLbMMAstaltu9C2yoYbZNoI2bKsmXLFtTV1eHgwYO63t987S4XtSypVAovvPAC7rvvvqz6Uo8nsY+M2mq++obBsrR1qbY1o/0cDodx7ty5guudTZ1o5Vq39ngV+0dQywDNeS4ajcppxXSTk5O6faC2Fy11fyGzz1555RWUlZVlnW+1587h4eGs87Za10brSKVSWW0t3/7TUpcFzfK2bdsGaOpEDL906VJWnedaPgqct9Rrgloeddu0x19zc7NsO+p0udpFvjYp9vPIyAhcLhecTqduX6t1qrYzldgW7fKgqavm5mZduzRq+/nartE2Ik+5tOWprq6W22J0PCDHur///e/j3nvvxenTp7FmzRrDfape6/JdT+d6/OfDnt8b4B3veAc2b96Mz3zmMwgGgwgGg/jMZz6DzZs3z6kH2O12o6qqSuaTRqNRzMzMzCrv1+fzob29Xb7QIHJs9+/fX7An2el0YtOmTdi1axc8Hg8GBwfR2Nho+NZoPB5HLBZDVVVVVv6uNj/W7XbDbrejo6MDHo8HHo8HExMTaGtrk/M5HA4cO3YMNptNTjc4OIiWlpasdW/YsAEnT57M24M8n8sTPdaxWAyJRAIdHR345Cc/if/+7/823Pbm5mbMzMxgdHRUN1wsJxwOy+V4My8BzpXdbsfDDz+MgwcPwuPxoL+/H7W1tVkvJuabLh6PY+vWrejv70cqlZIv9ok6Wb9+PUZGRuQ+NDPvjh075rTN4qQcDofl4/fm5mbEYjFZju7ubthsNuzZs0c3b75thRKMiGUNDg7qlqFlVBZVMe1Oy+v1wu/368oyMjKCNWvWqJMiEAigrq4O3d3dcrvcbjf8fn/Rbczv9+uW1dHRgYsXL6qTAUpgo20Dr776at71zrZOtPKtWwgEAroXUj0eDyKRCNrb27PW43Q64XK55DbPzMygra0NXV1dOHHihGF7UYkUsHA4jFQqhe7ubrS2tuKHP/whysvLs87d69evBwAMDw/rhudi1CampqbQ1dUlzznF7L9c5RVBZFVVFVavXg2PxyOHmz3WBLPXBDPbBgAWiwXt7e2IRqNy+5LJJHbu3AmHw5G3XeRrk8LatWvlskVgl+/4KqSlpUUur7+/H+Xl5XjiiSfQ1NQk2344HMbGjRvh1eTtFmq7uc6vRtcrLRHQimWq113kWfeaNWswMjKCY8eO5dynRtc69Xo6H8d/IQx+b4CGhgacOXMGiURCDkskEjhz5gwaGhp00xZDzCteQsh3EsnH4XCgqakJsVhM3lXF43GcPHkS5eXlaG5uVmfRSaVSeOqpp+SFfXR0FIlEIutELpw7dw4Wi0W37SKQP3v2LOLxOCKRCDo7O3XBgjhYampqgMxBVF5ejpMnT8rpgsEgYrEYmpqaZNBusVhw/vz5nBdzYb6XZ0RcxMRFDZptj8VihsHRQkmn0zhx4oS8kA0NDWFiYiIrdcbsdEZ6enp0d+piXrU3Yr5og03tST4YDOr+H4lEMD4+DpvNVtS2irZ37tw5OY+4oVXlKovKbLtTNTc3Y2JiIms7w+Gwbjqv14va2lqMjIzotisSiaCurq6ocwUyNwhTU1NyWfF4HI8++qhh262oqIDNZtO98Dk0NIR/+qd/0k2nmm2daBVat9frRVVVVVavVk9Pj+F6UqkUjh49CmS2+ezZs7BarRgfH5fzq+3FrNHRUczMzOjOtY7M+xzaui5EBBbHjx+Xw0SZxTmnmP1nxjPPPKP7v9ljTcvMNcHMtgnhcFh3LTt79qy8uSjULgp5+eWXdcf7XI8v7XVXtB+r1apr+8PDw0in0/KdnmLbbjFisZhu/42Ojur2jdG63W436urqAECu2+y1zuh6Oh/HfyEMfpcoEbCqJ0ajk0ghLpcLNpstq9dxcnIS6XQa1dXVuuEqtQzxeBzJZDLnyU4c4NpGrAbygk/zjdz29nZYrVZUVlYCmXJPTEzoDhpkbixsNhsqKirksFw9G1rzvTwjkUgEU1NTuouj2HazvTvzxegrFEbbana6XByZu3ixH51OZ862MRf33HMPNm7cmDfYDAQCshyNjY1Z21BoWycnJwEgqydEZaYsQjHtThAXEbWsMGib9fX1WT0tyExnsVhkQG9WIpGA0+k01at16dIlJJPJrF6rQmZTJ6pC666vr0cymTSsw2g0mtUTq57npqenkU6ns+p7NuIGHRe5zsu5qMGiIOpB3HAWs/8KSSaTuHTpkjoYMHGsaRW6JpjdNmRuYLU3p8jsKwCorKws2C4K0XZiYR6OL7X9JRIJpNNpea4xUmzbLYa6TDUOUNft1qRLDA4OynUXc61Tj6H5OP4LYfB7A4yNjWHt2rW6A9Rut2Pt2rVZwZ5ZLpcL5eXlcDqd8gQjAkSLxVLU3VFlZSWsViva29t1y+rt7dXles0n7QFqFMiLR03r1q3TPUpKp9NAJqCy2WxZ2y9OtFrpdFqe/HKZ7+Xlo56cXC5X1oX1VhEIBNDX14eY5jFoLBZTJ5szi8WCNWvWZPUMCX6/H6FQCNA8zlN7SM2IRCLYvXs3kskkent7ETL44ZJCZdEqpt1p1dTU6PIS87Hb7bDb7ejr69MtX5uvV4yenh6Z2hQKhfJ+EiqeefQ6MTEhzy+Fgq7Z1omq0LoX6unDbKkdF2qQUYhoEy0tLbo66+vr021rMfuvkGQymdVjPNtjLd81wey2mVGoXRSiBmrzfXyZUew2zyftuh0OB3bu3Inx8XHDp19mrnXq9XS+jv9CGPzeABcuXMCzzz6LL33pS/D5fPD5fPjSl76EZ599FhcuXFAnN0V8d1EEhtq/cDhc1J3f9PS0LidI/SvUczUbY2Nj8jGO2sPhcDiwadMmTExM5PwklOhd1gZV2r9c8+Uy38vLRzzirK+vz9uDVyyxDYuFz+dDbW0t+vv7F6QNaaXTaQwODsJms2XlqXu9XrjdbgwODma9fDEb4uIpjrWWlhbdxTNfWVSzbXeiN8aMRCKBRCZ/UV2+ms9oVjAYhEeTz3no0KG8PeGdnZ3waN4HEC+QGZltneSSa91qD97NJno/RfDnzLxQpQaXuYg2MTg4mFVnHk1+Kmax/8yay7GW75pQzLaZlatdFGshjq9CbmbbFeuuqKjA/v37s9IktGZzrZvv4z8XBr83yMDAAD7/+c/jd7/7HX73u9/h85///Ky/9CBOjOodlKDmBxUiHq+YnX4+RDJ5YE6nE+9///tN9XDU19frersSiUTR+c35zPfychGPOJ1OJzZv3oxkMpn1yGwubEpKgTjpLAYLWZbp6WkcPHjQVNApjqG5Ejl2ak9MMWWZTbsTj26NbnDVYRcvXizqZrgYkUgEJ06cADS5+PmInGS1japmUyeFqOvOVy+uefpxmmJFo1FUVVXhE5/4BGw2W9bj4XzytYlcit1/s2H2WMt3TZjNtpmltoti5WtHCyXfOhe67Yp1d3V1IZlM6gJfdd2zvdYtxPGvYvB7A124cAEDAwMYGBiYdY8vMsngdrs9Z+OOGOTa5CNOOuoXGhwOBx5//HFTy5iNc+fOyQNYm8sl7vy0jV/0KGiJC4N4i1cQvevFmu/l5XPu3DnYbDa8613vMtW7k+9kpxWNRmG327FlyxY5bNu2bQuWviIY3UCJR1naYUZlMZoXRWyzlriYl5eXy6BT9Bppl7Nly5asgNUMr9eLvXv3yv+LYN6oJ8aoLEZm0+7imZd4nErups/nywo0RO+LmqesbovZ+j5w4IBuOWK/GeUout1uHDhwQP5fBELax+VG6zVTJ94Cv1xVaN3BYBATExPYvn27bhl+vx+1tbW6l21uFJEG19DQkLNzI5dcbQLKPitm/xVrrsdavmuCmW0zo1C7QI42mYvZ42s+FdN2c51fZ0tsLzQvHCLHujGLax1MHv++zPtAuc6RhTD4XYJcLhdSqVTefGERBBX6UoMg8sC0OVUiV9NMY52NaObTbEbb8uSTTyKpyavctGkTvvnNb+oe9UYy+ZcAdPlWTU1Npu4uVfO9vHyGhoYwNTUFi8WS9XKGEXHCaW9vx1DmczxGRC+GyOcLhUKIRqMLkmerpb2BCmVy6IaGhnDq1KmCZTGaF0Vss2poaAhHjhxBeXk5vvzlL6OmpgYnTpxAbW2tLAcyb4TPxn333SeX09vbq/vuqkoti9E2zLbdBYNBXe5mKBSCy+XCoPLptXgmTWNqakoeT6FQCG1tbfK74yiivletWqVbjtE3i7XuueceOW1fXx+Syrc/jdZrpk7M5MQWWndnZycimc9Dabenp6dnQR5XFyKOhVWrVuXdrlyCwaD8zJbYnlAohNdee03un2L3XzHEDd9sj7V81wQz22ZWoXZh1CZzMXt8zTezbTfX+XW2tmzZgmQyifHx8ax2pK4bs7jWYQ7nxGLwRy6IbhKRYzabfDVauvyZH9PI9dF/MicQCCCRSOS88Viq2D5osXK73di5cyeeeuqpom44FuO1jj2/RDeBN/NtyNn07tDSZrfbdY9YqXhut7vonNilwJ35XupCPnEjmq1IJIKtW7cWFfgu1msdg1+im8DoV27o1rdYLwRLzWwuwktBsb/oRrTYLdZrHdMeiG4g8VvliTy/dU+3Hu1v1A/O4+/T063B7/ejsbERqVRq3vJviW6mxX6tY/BLRERERCWDaQ9EREREVDIY/BIRERFRyWDwS0REREQlg8EvEREREZUMBr9EREREVDIY/BIRERFRyWDwS0REREQlg8EvEREREZUMBr9EREREVDIY/BIRERFRyWDwS0REREQl4/8Cof3zCwlLHOUAAAAASUVORK5CYII=;" parent="1" vertex="1">
                    <mxGeometry x="-26" y="349" width="803.4" height="264" as="geometry"/>
                </mxCell>
            </root>
        </mxGraphModel>
    </diagram>
    <diagram id="R76lZx10NyUGpV6tOqRJ" name="Page-2">
        <mxGraphModel dx="1072" dy="659" grid="1" gridSize="10" guides="1" tooltips="1" connect="1" arrows="1" fold="1" page="1" pageScale="1" pageWidth="850" pageHeight="1100" math="0" shadow="0">
            <root>
                <mxCell id="0"/>
                <mxCell id="1" parent="0"/>
                <mxCell id="07SzD9cM7Q27N8rEW3NM-1" value="" style="shape=image;verticalLabelPosition=bottom;labelBackgroundColor=default;verticalAlign=top;aspect=fixed;imageAspect=0;image=data:image/png,iVBORw0KGgoAAAANSUhEUgAAAr8AAADnCAYAAAAXWz5dAAAAAXNSR0IArs4c6QAAAARnQU1BAACxjwv8YQUAAAAJcEhZcwAADsMAAA7DAcdvqGQAAFO1SURBVHhe7d1/cBtnnT/wd2qUJkIQTG3VGLu6E4US7s6W0VEMNZBezkxOSU4Xx8DdFTc/EPU5dQJzmWTqgpXGJk3nOuEGKmJ8o8kPMu0A4zrnS6wzmAylF0AUhBVzN6Ec0aGzSY2cYpqvUNqINN8/vnqe7+6jlbTyj8SO3q8ZzyT789lnn9397LOfXS276667roOIiIiIqATcpg4gIiIiIrpVMfglIiIiopLB4JeIiIiISgaDXyIiIiIqGQx+iYiIiKhkMPglIiIiopLB4JeIiIiISsYys9/5dTgc2L9/P+x2O9LpNI4cOYKhoSF1Msnr9WL79u2wWCxIJBLYt28f4vG4OhktIj6fDy0tLQCAWCyGzs5OdRKdQCAAp9MJABgcHEQwGFQnWTL+8i//EuvXr8ddd92FlStX4vr160ilUnjxxRdx5MgRxGIxdRYiIiJagtjzSyXvH//xH/HZz34W99xzD1auXAkAWLZsGd74xjfive99Lx5//HF88IMfVGcjIiKiJYjBL5U8m82G2267Da+++irGx8dx5swZTE5O4vXXXwcAvPnNb8YnP/lJvPnNb1ZnJSIioiWGwS+VvOvXr+OnP/0pOjo68Mgjj+DQoUN46KGHMDw8jGvXrgEA7HY73vnOd6qzEhER0RLD4JdK3sDAAA4cOIDf/OY3uuEvvPACXnvtNd0wIiIiWtpu+AtvnZ2d+Ku/+issW7Ys54twd955Jx5//HG87W1vw7Vr1/Dss8/i2LFjKCsrw4YNG7BmzRrU1tZi5cqVWLZsGa5du4aXXnoJoVAI//qv/6pblhkrV67EAw88gA996EN461vfirKyMrnMgYEBfPvb39ZN73a70dXVBavVikQigZ6eHvzFX/wFPB4Pbr/9dpw9exYHDx7UzZPLXNe9b98+NDQ0YNOmTbjjjjuwbNkypFIpPP/88wgGg7hy5Ypu/nwW4oW3O++8E3//93+Pe++9F29605tw22234erVq4jH43jmmWfwox/9SJ0FTqcTmzZtgsvlwlve8haUlZXJF9DGx8dx7NgxTExM6Obx+/1obGwEMmU5deoUtm/fDrfbDavVitdffx2//e1v8e///u/45je/KXt087n//vuxc+dOrFixAr/+9a/xuc99DolEQp2MiIiIlpAb3vN79uxZXL58GQDwlre8BatXr1YnQUNDA+644w4AwO9+9zucPXsWANDV1YX29nbcc889sFqtWLZsGQCgrKwMNTU1+NSnPoWOjg7dsgq5++678cUvfhEtLS2orKxEWVkZoFnmzp078cgjj8jhRj760Y/C6/VixYoVWLZsGSwWizqJoflY9+bNm/GpT30KlZWVuO222+SLWuvWrcOePXvyzrvQ7r33Xhw6dAjNzc1YtWoVbrvt/zW35cuX453vfCceffRR+Hw+3TwulwtPPPEE1q5dizvuuEOWX2zXBz7wAfT09ODuu+/Wzadls9lw4MABfOhDH4LVagUA3HbbbaioqMADDzyARx99tGC91NbW4mMf+xhWrFiBa9eu4T/+4z8Y+BIREd0Cbnjw+7Of/QwvvfQSkAmC6urq1EngcrmwfPlyAMB//dd/4Ze//CWQCWCuXbuGWCyGr3/96+ju7sbhw4fx61//GsgEjR/+8Ifhcrl0y8tl1apV6OzshMPhwPXr1/HrX/8ahw8fxmOPPYYzZ87g6tWrKCsrwwc+8AFs2LBBnR0A8IY3vAH33XdfwWBKNR/rfutb34r7778f09PT+Na3voVvfetbePnll4FMsFhXV3fTvlJw9913o6OjA29961vx+uuv4+c//zmefPJJfOELX8BPfvITXLt2DRaLBc3NzfjABz4g5ysrK8Ntt92GZDKJ733ve3jyySfx2GOP4bvf/S7S6TSQ6U1ubW3VrE3v/e9/P+68806cP38ep06dwpkzZzAzMwNk2tCf//mf56xTZMr+6KOP4o/+6I9w/fp1/PjHP8bTTz+tTkZERERL0KzSHoqlpjc8+OCD+NjHPoaysrKsx8nalIerV6/iq1/9KkZGRgAADzzwAH75y19mPSpfvXo1Hn30Udxxxx24du0ann76aXz961/XTWNk69at2Lx5M8rKyvCLX/wC+/btwyuvvGI4/uc//zn27NmDa9eu6VIPXn/9dVy/fh3PP/88/uVf/kU3fz7zsW4AWfNq6wJ50hGMaNMeiqWu55FHHsGHP/xhXL9+HT/60Y9w4MABXaqBGA8Azz//PJ544gkgU/7GxkZ8/etfz0rZ+MxnPoOPfvSjWLZsGf73f/8Xe/fulU8RtGkP6XQazzzzDL7xjW/IeVetWoXe3l7ZY3z+/Hns3r1bjhfuvvtuPPLII6iursa1a9fw/e9/H08++aSpNAkiIiJa/G54zy8A/OAHP8Dvfvc7AEBFRQXq6+vlOG3Kw8WLF/GDH/xAjnv66aezAl9kAhkR/JWVlcFms6mTZCkrK8N73/telJWV4erVqxgZGckKXH/2s5/JF57uuOMO3HXXXbrxyPQk/vjHP8aTTz6ZNX8u87XuK1eu4Nlnn9XNe/78eV0+bHV1tfz3jeJwOPDud78bAHD58mX827/9W1bweP78edmTW1tbK3vOz58/j6NHj2YFvgDwq1/9Cn/4wx8AACtWrEB5ebk6CQDgwoULGBgY0A175ZVXcObMGbnOiooK/PEf/7FumrKyMmzbtk0Gvs899xwDXyIiolvMrILfa9euYXJyEr/4xS9y/k1OTuYMGn75y1/KXuDbb78d73nPe+S4uro6LF++HNevX8fY2Jjs2RNWrVqFv/mbv4Hf70cgEMDXv/51nDx5Ur54ZVZNTY38buvy5cuxa9cuhEIh3V9vb6/sYX3jG9+It771rcpS/l8A+t3vflcdnNd8rTuZTGJyclIdjFdffVUdVLTf//73WftU/fv973+vzgZkAktxA7Jq1So8/vjjWdvX3t4uc6Pf+MY3oqamRrcMl8uFHTt24NChQzh69CgGBgbg8/lM5VP/4he/MGx7k5OTMvg1qtP3vve9eNe73gUAeOmllxAMBg2XQ0REREvXrILf119/HcPDw/jsZz+b8294eFj+SICRs2fP4urVq0DmUfeb3/xm3bdUL1++jB//+Mdy+rKyMvh8Phw/fhwPPfQQGhsb4XQ68eY3vxm33367nM4sbYA2F1euXCn6Raj5Wvf169fz1vFc/OY3v8nap+qf+mkwoaamxlSQauTd7343+vr6cODAAWzYsAGrV6/GnXfeCavVajqvWvQOF+stb3kL3vCGNwAArl69mtUbT0REREvfrILf+TA2NiZfzhKpD/X19aioqAAyj66j0aic/mMf+xj++q//GsuXL8fVq1fxk5/8BMFgEI888gg2b96MWCwmpzXjt7/9rey5TKVSeOyxx+DxeHL+tba2IhKJqIvBH/7wh6J7Wudr3YvVSy+9JHtYp6en8fDDD2dtk/Zv69atiMfjWLVqFT7zmc/A4XAAAKampnD69Gl84QtfQEdHB/r7++VyZ0MbPKfTaXnzJUxNTcl9uXLlStx555268URERLT03bTg9ze/+Q3Gx8eBTKDx7ne/Gw0NDbj99tuRTqd1vb4A8L73vQ9veMMbcO3aNfzrv/4r/H4/BgcHMT4+jqtXr8rPnpn18ssvy7xSNfViod3Mdd8Ir7zyigwiV61ahXvuuUedxNC9996LqqoqIBOIdnV14fDhw/jBD36AeDxuuuc3V57ze97zHvmU4JVXXsn6vvTPfvYz/N3f/R08Hg8+9alP5ezZJiIioqXrpgW/APDTn/4UqVQKy5YtQ0NDg0x5uHTpEsLhsG5abWqD2tP6oQ99SAZNZl2+fFn2FpeVleEjH/mIfElrod3Mdd8IL774ogwcly9fjr/6q78y1YtqtVrlt4DT6bTupbeysjK43W5T6RR/+qd/ivvuu0837O6778b999+PsswPZvznf/5nVj45ERER3fpuavB77tw5mS/7tre9DXa7Xb7opva6iS8flJWVwev14lOf+hQ++MEP4pFHHsFnP/vZWeX9ar+ycOedd+ILX/gCurq6sG7dOtx7773YsmUL9u/fj2AwaPrbwWbdzHXfCN/+9rflTco73/lOfPGLX8RnP/tZ3H///fjgBz8In8+HJ554Al/5yldkmkMqlZI5zDU1Nfjc5z6H+++/Hx/72Mfw1a9+FXV1dbh+vfCX+VauXIk9e/bg85//PB544AHs2bMHjz/+OCorK4FM2smZM2fU2bBq1So88cQTOH36NJ5++umb9o1kIiIiWjg3Nfi9fPkyXnjhBVy7dg233347LBYLrly5gnPnzqmT4nvf+57M0Vy1ahU2b96Mz3/+8/jwhz+Ml156CRcvXlRnKWh8fBzPPPMMUqkUkOl5/NCHPoRdu3bhsccewyc+8Qm8733vkz+xO59u5rpvhG9961sIhUIyR7e8vBwf/ehHZVDa0tKCuro6vPGNb5Tz/OhHP8L//M//AJlPyP3Zn/0Z9uzZg23btsFut2NsbMzUy2w//OEP8eqrr+KDH/wgHnjgAdx///3yBcNUKoVvfvObOH/+vDob1qxZg9WrV+O2225DeXk5/vIv/1KdhIiIiJa4mxr8AkA0GkUymZT//9///V/dt32Ff/u3f8OXv/xl/PrXv5afn7py5Qp++MMf4rHHHst6ecmsU6dOYe/evQiHw0gmk7Ln8fXXX0cqlcKLL76IEydO6F6+my83c903QjAYRE9PD372s58hlUrJXttr167h//yf/4Px8XEcO3ZM5t5evnwZ+/fvx/PPPy9vCq5du4ZEIoGvfOUrpl/6SyQS+Od//mf86le/0rWV8fFx7N27F6dOnVJnAQA899xzuHDhAl5//XXMzMzgO9/5jjoJERERLXGmf+GNaDHT/sKb+mtzRERERMJN7/klIiIiIrpRGPwSERERUclg8EtEREREJYPBLxERERGVDAa/RERERFQy+LUHIiIiIioZ7PklIiIiopLB4JeIiIiISgaDXyIiIiIqGQx+iYiIiKhkMPglIiIiopLB4JeIiIiISgaDXyIiIiIqGQx+iYiIiKhkmPqRi9WrV6uDiIiIiIiWHFPBLxERERHRrYBpD0RERERUMhj8EhEREVHJYPBLRERERCWDwS8RERERlQwGv0RERERUMhj8EhEREVHJYPBLRERERCWDwS8RERERlQwGv0RERERUMhj8EhEREVHJYPBLRERERCWDwS8RERERlQwGv0RERERUMhj8EhEREVHJYPBLRERERCWDwS8RERERlQwGv0RERERUMhj8EhEREVHJYPBLRERERCWDwS8RERERlQwGv0RERERUMhj8EhEREVHJYPBLRERERCWDwS8RERERlQwGv0RERERUMhj8EhEREVHJWBTBr8/nQygUQigUgt/vV0cTwe/3Y2BgAG63Wx1FJrjdbgwMDMDn86mjiObM6/ViaGjI9DlctEfttIFAAMeOHYPD4dBNO58cDgeOHTuGQCCgjqJ54PP5MDQ0BK/Xq44iWlRMB7/aAFX7x4ZOxZqPi5y42DKYm3/zsX+odHi9Xmzfvh2nTp2Cx+NBT0+POsmiUVFRAZvNhkQioY6ieVBdXY10Oo3JyUl1FNGiYjr4BYB0Oo3+/n54PB75J4IQoltVMb2mXq8XAwMDvCGcJ36/33QgHggE2KN3E9TX1yOdTmNsbEwdtejU1NQAAM6dO6eOonlgt9sxNTWFSCSijiJaVIoKfonmQ2dnJ7Zu3Yp4PK6OMk08cQgGg+oomqP52D9Ei1F9fT0AsGdyAbjdblRVVbFXnZYEBr9ERFQS7HY7kskkLl26pI6iOaqpqYHFYsHFixfVUUSLzrK77rrrujrQiM/nw8aNG3HkyJGcaQ7ikePo6Ci2b98Oi8UCAAiHw3nzwHw+H1paWoDMtADQ2NgIZFIt1HW63W50dXXBarXKYYODg7IX0Gg8AMRiMXR2dgKZFx/2798Pu92OVCqFr33ta3jwwQflPIlEAvv27SvY+yXy3cS2qvOJOolGo2hpaUEqlcLBgwdzPhYyu7xi6xhKPQPQlcXv98PpdOL48eN4+OGHZT3kKm8gEIDT6ZT/19Y/CqwrEAjAZrPJ7dLuC0Hdbr/fj7q6OrkMbZ6hWG++dcJE3Yo6GB0dxcc//nEAwCuvvIKKigq5TCjtSDDaBgAYHx9HVVUVkslk1jzabZienkZbWxtOnDiB5ubmvHWLTFnFMQIT+18cEyMjI6iurs47r7p/crUNtR6Mjjux7HztRVs2l8sFp9OJS5cuYdWqVXJfIce5AAb7HZp9X1NTg7a2Npw8eRLNzc2w2+267c1XrlzUulfbUb56ENS2JrZzcHAQo6OjurakLj+XYtar7kujY6VQezRaXyqVwiuvvIKysrKsMovpx8fHMTw8LP+t3Rfadqedp1A5c+1fLXGMJpNJHD16VLdco/1eqG3kOubF+rXHt/aYM7s/hULnLRQ4Bsyc/8S2xGIxuW9y1Y1aL2J7jWIEMa32XFGorKIdqG1ULQcMyqKdxufzYd26dTh48CDWr1+fVf8AsH//fgDIqk+69c17z6/T6cSmTZuwa9cueDweDA4OorGx0VS+JDJBr/bCYrFY0NbWJt/y9/l86O3tzQpsW1pa5JvD4g5U5XQ6DXMCrVYr/uEf/kG3TLvdjv379+fNNfT5fGhvb5cvenR0dACZA0o7X1VVFVavXg2Px4PW1tasQFIwu7zZ1LE4MWlztl988UXdNDabDZ/+9Kdx8OBBuf5kMomuri5Z/+JtaZvNho6ODrn+lpYWuX4z69Jqbm5GLBaT03Z3d8Nms2HPnj3qpDkVWqfZurXZbPjIRz6CXbt2wev14sEHH0R3dzdSqRQGBwfh8XiyglgAiMfj2Lp1K/r7+5FKpWQ5HnnkEcRiMVRVVck6FJqbmzEzM4PR0VE5rK2tDdFoVG5DOBzW1S0yJ/y6ujp0d3fD4/Ggv78fbrfb1Fv2a9euBQC5fNF2Cs1rt9vx8MMPy7bR39+P2tpa3Xzr16/HyMiIbtkiX7qqqkpX3o0bN2a117Vr18ptf/DBB+H1ehEOh5FIJNDR0ZHz/YJgMAiPx4NYLCbbkXqcbdiwASdPnoQn80KWmXZsRNyEiW3p6OjQ9XSJ89P4+LisB7F/1HOP3W5Hc3OzPI5jsRg2btyIQ4cO4ezZs/AUcSwUs14zx7mQrz1GIhG0trYiHA4jlUqhu7sbra2t+OEPf4jy8nK4XC7dstavXw8AGB4e1g3Pxev1wu/367ZpamrKsJzq/jUiXnZbvnw5du/eLbc/Foth3bp1cpmizaptY+PGjTKX3+fzoa+vT3fe6u/vRzqdlu2hsrISALBu3Togc8yZ3Z+C3+83PG+J+UU7XrdunWyTYpu0PdyFliPqZsWKFVl109TUJM+RgUBAdywPDg7K7dW+7CbKJabt7Ow0VVaHwwGbzZbVRsPhsK7+zeyj6upqJJNJtLe3A5n67+/vR3l5OZqbm0Glrajg12KxoL29Xfe1B/VllFQqhaeeekreRY2OjiKRSGSdCHMRJ9GOjg6ZO2S1WtHQ0AC32y1PJNqTjugtrqurg9vtlvmgYrw4wJAJRNUTJzTL065XXJyMOBwONDU1IRaLyTvNeDyOkydPGh5czzzzjO7/qmKWN5s6rq6uxszMDKLRqBz2uc99ThcgWCwWfOMb35DD4vE4nnrqKUBz4WpubkZ5eTlOnjwp1x8MBnUnSTPr0goGg7oLViQSwfj4OGw2W96bD6186yymbi0WC4aHh+e1F0Bc7EUdQpMfF4vF5LosFgvGx8d1vRs9PT26uvV6vaitrcXIyIisz6GhIUQiEdn+83n55Zd1dR0MBhEOhwvOm06nceLECd06JyYm4HQ65T7q6enRlX10dBQzMzOwWCxZ80YiEd1FFZmyqT0788FiseD8+fO6wNlMOzaivtATj8fx6KOPyt6zpqamrJ7HoaEhnDp1CrW1tfLCjEydatcvboKmpqZkPYhjIdd5C5pzh9n1mjnOxXSF2qMRsd+1x5XD4YDT6SzqZShxc3j8+HE57OjRo4BBOdX9a0R0iixfvhxdXV2yHNFoFBaLRb4Mt23bNiSTyZy9geI6pNZ3ZWWl7sW/6upqWYdiukgkgqmpKVPnNq/XC7fbbdjjKWzZsgU2m03XwysCSHFuMbOchoYGWK1WVFdX6+omkUjAZrOhoqJCLle7D4PBoFymODYA4NChQwCA3bt3y2nNlFUE4WIZYjrxgqK4oSi0j0R7s9vteOGFF2T9T05OIp1Oo7q6GvFMhwXfbyhNRQW/Rl97UBuOenKLx+NIJpOmDnZkHhNHIhHE43EZsAriAEWm91ME4KKnWHsCg/LtSfFoRJ0GmWBSnFTj8TjOnj0rx1VXV2um/P9cLhdsNpuu1w7KwSWYyTErZnmzqeOLFy/Cbrfn7XFQg0cAuHTpEpLJpHy053K5MDExkXWh0Z4kzazLSCAQ0O1TsTwz8q2zmLpdiM/0iAueNlBsaGgAlF6wdDpt+Ba6tm7r6+uzeouR2X6jtq1S9y9MzmvUNrTlMiLapdG8Fy9ezJpX3HQuBDUP0Uw7NpJIJOB0Og17ykU7M9qHY2NjSKfT8oUrGNSpaI/F1sNc1wuD4xwm26MRce7WBuy5jsFcxM3h2bNnddcXo3LCYP8aEXWgveGA0mMpbi616/VlHtOLesvVg+1yuXTnensmpU6dTrt/fQafEBVtS30y5NCkWUSjUbjdbtTV1clrpuByuVBeXi7rpNByoKkDtW7smhxpcTyrN1PQ7K/ly5fD7/djampKFxuYLau4QVGnE8cGMtf1QvtIBNHaDg/t8s20F7q1FRX8LnYWiwWVlZXyhNLe3g6LQfrDfKisrITVas3qCTdKyUgmkwXvLItZ3mwEg0H5qDoUCs3qByPEXbr2xkMbrArFrsvv9yMUCgGax/GiN9+sfOsspm7N3KjMRjQa1T0KdrlcWTcxZtjtdtjtdvT19em2Rc2huxkcmcea2nKJ3hej8qoB90JdkNLpNKanp+X/zbZjIz09PTJVJKQ8+aqsrFyw800+N2u9+Zw7dw4Wi0Xe5NXX1yOZTGYF3bmIIKWlpUW3f/r6+rICX3X/5mK32w0Df22AJ+pSu16RTrV161Yg0/GiHruiTYlzvVEvqaAtfzCTsqP9E2k5NptNd+z09fUhmUzC4/EgGAyioaEBFosl6wZF9I5OT0+bWg5y1I26TQDw5JNPYmZmBu3t7bp0GrG/3vSmNwGapxiCmbJq/69Op01lLLSP4vG4nF7d1+r6qHQt2eA3HA5nnTQ8Hg9GR0fR1NQEKD3VxQRT2p7AXBfk6elpXW6n+pcr7yyX+V6eEZEOInL8/H5/1h18LolEQt75a1NOtH/aPEuz69I+kjPKpS1GrnXeiLotRDwKrq+vl70k6ok5H3FxTiQSSGRyYNXtEE86ZmOuPd5utxuHDh2SF1XxF4vFFqS8c1FMOzYiAhaRv3no0CG43W5MT0/L3qkbaT7Xa7bXudBNokiLcblc8hG0NsWnENHTJ/Ls1b9izxVGgRwM0o+qq6tl6p1RO831IxmiB1MMF9Opx7i6vlzE/Op1Trvd2h5rLZfLldUDmm85om7UMhltazyTKjA4OKh7AiKCytOnT2NmZgabNm3SPYXMV1btcKP0NSjfki60j2CQgiLkKgeVniUV/I6NjSGVSgGZk4g2mPJ6vdi7d68uZ0g81hQn31ysVqt8lCUez6BAj4I4eLSPE+divpeXTzyT45dOp+VJC4DhSyrqY6lEIpE3/1CVa135FNpfhajrvJF1m0s88yjY6XRi8+bNSCaTWb0jFoslq4yiLsRF++LFi4b7ySyj+dTHtbMhena02yQuqrY8j8hvlmLbsZFIJIITJ04AmZ6pfO0sV8/XfCh2vUbtRz3OYbI95hONRlFVVYVPfOITsNlsWY//8xHpDWo5Z8sokIPBY3AzKUBGRH6zqGdR7+r1I1fKhCpXekchIiVA7B8zyzHa98jRdgSRHy9SuURQ+fOf/1y+S7FlyxZ1Nh1RVtE7nqttqSkTZvaR0TlNLN+oN55Kz5IKfiOZlz9g8PJde3s7VqxYIQ92aPKCjR6VqcRjTO2j8EgkkrNnSpRF/cqCw+HA448/rrvrNWO+l6fau3ev7mbB6ORssVh0d+xutxttbW26fDFx0t65c6euTD6fT5bbzLoE0cOjvcht2bKl4P5S5VvnXOu2mAtxvkDk3LlzsNlseNe73pXVyyKoN3V79uxBeXm5rH/Rg6z9Ago0N3+FOJ1OXR34M5++UnMri6U+tkSm7FevXkUymTRsL0Z5s6pigv1iAloz7djIgQMHdMvX/mhCJBLByMhI1tczvF4vNm7cmPd8MhfFrtfMcS4Uao/5iF63hoaGogOOeObdC23voqDuAzNyBXLqY3CRI63WTyAQgMPhQCSTv699QTQQCOCOO+7I6sFUexgDgQDcbrfu5c9ctDfL6vEq/i9SS0RA7fV68bd/+7eApgffzHLUOhC02+BwOGT5ofRgQ0kFGTJ4AddMWY1uULyZL35MTU3JJ3SF9pEjRy+/unxHJk1LfWmfSkNRwa8acIq/fBeL+dbT0yM/KaMlXiwQvX6ihxiZFIl8aQ+pVArPPfecbpj6Jq8Rkf+nzT0Sn7+ZTSAx38vTWrFihW7fqd9jROYk9NOf/lTmhvX29ma9uBCJRLB7924A0OVxNjU1yQuimXUJkUzvmcjVDWVyf/PtLyOF1jmXutVeiEOhUNano7S0gXZI8/IKMo+Cp6amDC/CyDxpOHXqFNra2mQZq6qq0NPTI7cjnnnsODU1hd7eXjldW1sbzpw5oy4yy8jICJqamuR8brcb/f39Od8CN2so82UBbf0mEgk89NBD8pua2vaybt26gr1f0AT77e3tGMqkteQiltfb21swz9xMOzayatUqXb1rvz0NTe652+2W04hPTBU6n8xFMes1c5zDZHvMRxwLq1atynqMbYbRNoVCIbz22msFg0eVUTAqhmsfs0ciERw8eBA2m01XP9FoVNaNeDlatINoNIrz58/rlmu322G1WnVtxWazYdeuXabqDplzVjjzaTmxDGfm29DQfDVFnGs2bdqE06dPA0q6XqHlqHUgaHOhkflEntge8Vm9np6erKASBjeXRmX9l3/5F911XPTCi2lCmjasTdMotI9ypZyovfxU2kz/yMWtxqH8yIX2AlaKRA9grk/H0PwQgbOas+jV/KiA2YsjUbHMHufz1R7Nru9WIq4tsVgs68ZjofmVHwNaSnyaH6VYamWnpaeonl8imj2R46b2SBDdityZXE0zT1duJblyaBeaI5PTqn4mbKkwytMlWigMfoluEPV7m0S3MrMvd91qcuXQziefz6dLvxK9zQB0PwqyVOTK0yVaKAx+iRaY+PEOm81WUo9/qTT5M9/tXqqP3+cqVw7tfBobG0NVVZXMjRXf7lXztpeKXHm6RAulZHN+iYiIiKj0sOeXiIiIiEoGg18iIiIiKhkMfomIiIioZDD4JSIiIqKSweCXiIiIiEoGg18iIiIiKhkMfomIiIioZDD4JSIiIqKSweCXiIiIiEoGg18iIiIiKhkMfomIiIioZDD4JSIiIqKSweCXiIiIiEoGg18iIiIiKhkMfomIiIioZDD4JSIiIqKSweCXiIiIiEoGg18iIiIiKhkMfomIiIioZDD4JSIiIqKSweCXiIiIiEoGg18iIiIiKhkMfomIiIioZDD4JSIiIqKSweCXiIiIiEoGg18iIiIiKhkMfomIiIioZDD4JSIiIqKSweCXiIiIiEoGg98iORwOHDt2DKFQCIFAQB09Jz6fD6FQCKFQCH6/Xx1NRfJ6vRgaGoLP51NH6Yh9Ot/781bm9/tx7NgxOBwOdRQREdGiVnLBr9/vlwFmKBTKeQHPNZ3L5UJ5eTkAoKqqCm63W5215LndbgwMDOjqT/wVCkRpdvx+PwYGBtgeiYiICii54FdVXl4Ol8ulG+ZwOOB0OnXDhGg0ipmZGQDA1NQUIpGIOgllhMNheDwe3V8wGFQnIyIiIrphSjb4TaVSSKfTsFgsqK+v140TvbvpdBqpVEo3Lh6PY+vWrfB4POjs7NSNI5oNt9uNQCBg+ATCrJ6eHrS2tvJmjIiIqICSDX4tFgvS6TQAwOl06gKP+vp6Od5isWjmIpo/Ite4t7cXyNxYERER0cJadtddd11XBy42O3bswNq1awEAZ86cweHDh9VJTPP7/WhsbEQqlUI8Hsfq1auRTqdx5MgRDA0NweFwYP/+/bDb7Th//jwcDgesVisSiQT27duHiooKdHV15R02OjqKj3/84zJwjsVipnqJfT4fWlpagEzKAAA0NjYCgK6MgtvtlusVBgcHZWqB0Xgo5dFOU6js2mnD4TB6enp0yxXEdOPj4zmnQY7yqcv1+/1wOp2yXABkPajzp1IpHDx4UPZ+er1ebN++HadOndKlW4g2IESjUVRXVyOZTOr2k5hf1IXY3yJIzVe2QkQZ1GXmo20fULbX7/ejrq5O/t/r9aKtrQ0nTpxAc3OzTONR60gIBAK6VB9tOzIitv348eN4+OGHc+4DGJQbyvJFWU+ePInm5mbY7XaEw2EMDw+jq6sLIyMjqK6uznssEBERmbXoe3537NiBDRs2YOXKlVi5ciU2bNiAHTt2qJPNyvnz57NSH7QpD+fPn1dnKchut+OBBx7Q9Rg7nc6iX/RqbGzUBWgWiwVtbW3yhSafz4fe3t6swLalpUV+KaKmpsaw59rpdBp+2SBX2cW0DQ0Ncn1qb3mxRPnHx8dlPnB/f79MAdCy2Wz4yEc+gl27dskvOHi9Xvj9ft38U1NT6OrqyvvSVyAQQF1dHbq7u+HxeNDR0YHq6mrY7XbddD6fD+3t7Th16pScDgD279+v226jsuUjpnG73ejv78fWrVtNB74bN25Ef3+/3N4XX3xRnUzHYrGgvb0d0WhUbkMymcTOnTvlNojeZ5vNho6ODng8HgwODqKlpaVgm7XZbPj0pz+NgwcP6pav3QfiJVFR3x6PB+FwGBs3boTX69Utb8OGDTh58iQ8Ho/uBkgEzmL+iYkJ3bFARERUjEUf/Ioe30LDZuPChQvy5TURzImUh5mZGVy4cEGdxZTBwUF5kRfUl+oKSaVS6O7uRkdHBxKJBADAarWioaEBbrcb69atAzI9s9qgAgDq6urgdrtlkCjGezwexGIxIM+XKsRLat3d3TLfuba2Fl6vF2NjY3JYLBYrGLQ1NjbqvvQgvkbgcDjQ1NSU1cs7NDSEU6dOyfUJFosFw8PDuvU1NzdjZmYGx48fl8OOHj0KAFi/fr0cpuX1elFVVYUTJ07Insl4PI6nnnpKl9styheLxWTvZDwex8mTJ1FeXo7m5mY5rVHZcgkEAmhvb5c9s4UCZa3q6mrMzMwgGo3KYZ/73OeyenBV4XBYtw1nz57VveTZ3NyM8vJynDx5Um5DMBhELBZDU1NT3hsci8WCb3zjG1l1Cc0+iMfj6Ozs1JVzeHgY6XQalZWVcpjFYsH58+cN6yQWi+nayejoKCwWCxoaGnTTERERmbHog9+FdPnyZRkMlpeXo6mpST76jcViuHz5sjJHYSJ1AJmLvAiqbDYbHA5H1ifUQjm+6Ts+Po5IJIJ4PC7LKKg9sGI5oqfYYrGgpqZGTi8CrVAoJLdPnQaZsotgMhKJYHx8XE5bWVmJSCSC1tbWrJ65XNSvPYgXslwuF2w2G86dO6fOgrGxMaTTad1LiOl0GpOTk/L/brcbVVVVOHv2rC7ovHTpEpLJZFYvrlBfX49kMqkLIKGZTxDlE/tRmJycRDqdRnV1tRymli2fJ598EolEAo2NjVm924VcvHgRdrsde/bsUUfllE6ns+p4enoaAGTg6XK5MDExkRV0JhIJ2Gw2VFRU6IZrqcE48uwDbRsUTyy09YjMNhpR12G0H4iIiMxa9MHvmTNn1EGGw2br3LlzMvXh7W9/O2w2m2HQsJSIYFX8aEZ7e7th+sPNUllZWVR5kskkLl26JP8v0jlaWlp0NxF9fX1ZQZdWvnFalZWVsFqtaG9v1y3fKM1ELVs+8cyXQjo6OmCz2RAq4odSgsEg+vv7UVtbi5CmF30uHA4HbDab7gZKvZGaK3fmm8/bt2/HkSNHsp4qCOl0WgbmREREC2nRB7+HDx/G6dOnceXKFVy5cgWnT5+e0wtvKu13e9esWQOr1WrYozVfenp6dL2hZntRc1F7V8Xf6OgompqagExgIXJFtakYhYhgcb4Dk+npaaQzX9qYDdHzJ9JL1L9cLxeK9JFCpqenkUqldPm187W/oAmCu7u7UVVVZToIFmksIrfW7/dn5c0WIx6PI5lM6lJntH9z+XSaqOtt27YhmUxi165dWb3LREREN8OiD36RCYA3b96MzZs3z2vgi0wAoKYVmMlnvZm0ubdut1sXAHm9XuzduxcVFRWw2WwAIB9rO/L8eAcywa7IZ/V6vaitrQU0j/ZFL14oR6qGWSJNQP2+MjIpHRaLJW/Pu3i0Xmwe9cWLFw1/1ET7q30oUL75JNJI+vv7sXz58rz5tVoit1bNm52NRCKRM/+7kHx1mSuFAUraDhER0Y22JILfhSZSH5AjT3KxUfNxtY/n29vbsWLFCl0eq3isXSgtAJk368VyRGrCyMgIIpFIVq6x2WBNFYlEMDIygsbGRl0Q7fV6sXHjRkQikby9hOLFLafTmRWEHzhwIGcgNzo6ipmZGd2XAhwOBzZt2qRLwxD129jYqPvigcPhwOOPPz7r7c5laGgIDz30UN4brr179+pucsRNwlx75IeHhwFA9wUIZL4uUehrDxaLBZs2bZLzud1utLW1YWZmRuZLJxIJXZCsfVmTiIjoZmDwq6Q+LGTKw3zq6elBf39/VvpAKpWSXx9Qv2IQDofzpj0kEomsbdd+j7XYrz3kI3JY3W63LnA/deqUqbQCo/lDoRBee+21nI/q4/E49u3bh2Qyid7eXoRCIXz5y1/G6OhoVkpET0+P/OSXWHZfX9+st1v7wpfRn0hpyGXFihW6m5yNGzfOy7duI5EIdu/eDQDo6+uTy29qasp64U+VSCTw05/+VM7X29uLqakp3efbenp6MDExIcve1dWFr33ta1k5v0RERDfKkviRC1o4buVHLsz+4AIRERHRUsSeXyIiIiIqGQx+iYiIiKhkMPglIiIiopLBnF8iIiIiKhns+SUiIiKiksHgl4iIiIhKBoNfIiIiIioZDH6JiIiIqGQw+CUiIiKiksHgl4iIiIhKBoNfIiIiIioZDH6JiIiIqGQw+CUiIiKiksHgd5FyOBw4duwYQqEQBgYG4Ha71UmoSIFAAMeOHYPD4VBH6fh8PgwNDcHr9aqjyIDb7cbAwAB8Pp86ioiIaNEpueDX7/cjFArJv1zBkNnpqDC1LlmnC0sEo36/Xx1FRERU8kou+FWVl5fD5XLphjkcDjidTt0wmptUKoXu7m54PB75t3XrVsTjcXVSIiIiogVTssFvKpVCOp2GxWJBfX29bpzL5UJ5eTnS6TRSqZRuHNF88Hq9OHTokDp4XkQiEbS2tqKnp0cdRUREVPJKNvi1WCxIp9MAAKfTqXv8Xl9fL8dbLBbNXETzY3JyEg6HA6FQiLmyREREN9Cyu+6667o6cLHZsWMH1q5dCwA4c+YMDh8+rE5imt/vR2NjI1KpFOLxOFavXo10Oo0jR45gaGgIDocD+/fvh91ux/nz5+FwOGC1WpFIJLBv3z7E43EEAoGstIhUKoWDBw8iEonA5/OhpaUla7jb7UZXVxesVqtuuBFtOVKpFL72ta/hwQcfhNVqBQDEYjF0dnbq5hHbJmjLbDQegG7b1WkGBwfhcrnktuaattC2+P1+1NXV5Z0GBuVTlyvqb2RkRJZLWw/q/OFwWNf7GQgEYLPZdHWi3SfIrPOFF17Afffdp9tWMb92vw8ODiIYDOqWk6tsuYi2om5rIdr2IYjtFWUZHx+X2x8IBAAAo6Oj2L59u7ypU+sImV5p7TRqO1Jpt726ujrvPjAqt7p8UdZoNKqrm/Xr18PpdOL48eN4+OGH8x4LREREuSz6nt8dO3Zgw4YNWLlyJVauXIkNGzZgx44d6mSzcv78+azUB23Kw/nz59VZ4HA4YLPZ1MGwWq3o6uqC2+1GMBhEOByWw9evXw8A2LZtG6xWK9LpNE6cOGE60LFarfiHf/gHebFHprdavNAkvgyhBrZ2ux2HDh2SX4rQBhyCxWLB9u3bDb9s0NLSogv2tNNq86KtVisaGho0cxZHlL+urk6XFzw1NQW/359VtrVr1yIajcLj8cigJxAI6Obv7++H2+3O+9KX1+uF3+/H+Pi4XOfIyAjWrFmjm06Uz2azoaOjAx6PB4ODg2hpacnqtTUqWz7BYFBua29vrwz88hEBZDKZlOXu7+/Hq6++qk6q43Q6sWnTJuzatUtuQ2Njo24bfD4f2tvbcerUKXg8HnR0dAAA9u/fX/DlRHGDKsoklq/dB83NzYjFYnKa7u5u2Gw27NmzR7MkoKqqCqtXr4bH40Fra6s8Vux2Ox5++GEcPHhQbndtbW3e/UxERKS16INfcUEtNGw2Lly4gJmZGUCT+iBSHmZmZnDhwgV1FsTjcWzdulVevMVFHkoQePz4cSQSCQBAXV0dfD4famtrgUxOprZH0YxwOKxbFzRl3rJlC+x2O9LpNPr7+2VQkUqldMF3Z2enrtz9/f1Zwb+W9iU1EcxbLBY0NzcjHo8jFovJ6cbGxpS59axWK3p7e3VfexABS3NzM2w2W1bP55NPPomZmRk0NzdrlgS8/PLLsscVmSC2trYWIyMjcv6hoSFEIhHU1dXl/Excc3MzJiYmdD2T2hsX7XTl5eU4efKk7J0MBoOIxWJoamrSBYVq2czq7OxEd3c3qqqqCqZCVFRUwGazIRqNymFDQ0P4p3/6J910qlQqhaeeekpuw+joKBKJhHzh0+FwoKmpCbFYTG5DPB7HyZMnUV5enrUfVC+//LJhXWr3QTAY1E0TiUQwPj4Om82WFVw/88wzuv8j8/RBe+M4NDSEiYmJrNQlIiKiXBZ98LuQLl++LAO48vJyNDU1yd7MWCyGy5cvK3P8f6I3MBQKyRQHAKiurgY0QUM6nYbVakVLSwssFgsSiQSOHz8OaD5JpQ0Ijb7pm0qlMDw8DAAYGxvTvYRXXV0ty2yxWNDe3o5QKITe3l7ZU6z2+AYCAYRCIbS3t8tH2+o0AHTB5PDwsFyvCFR6enqyeuZy0QbS4k8EQS6XC1NTU1nLEAF2VVWVrk7ETYVQX1+PmZkZjI6O6oZfvHgRFosFNTU1uuHI1H1VVZUugBQuXryo+7/L5cLExETWDUsikYDNZkNFRYVu2GyIXmir1apLpzBy6dIlJJNJbNy4MatXPB+1juPxOJLJpNyfLpcLNpstqx4nJyeRTqdl284lV10a7QPRBkOhEBobG7PqMZlM4tKlS7p5AGBmZiZrPUb7gYiIKJdFH/yeOXNGHWQ4bLbOnTsnez/f/va3w2azIZ1O49y5c+qkgCZg7evrMwwYtUTvo9bZs2dz5k4uFJvNhg984AMyWFfzlW+mXGkk+ajBqd1uh91uR19fn+5GQntToqqpqTH1MqMon9Pp1C1bBG0qtWyFeL1eDA0Nob29HZFIBB6PJ2/gC83Th4mJCXmzMx+P/SsrK2G1WuUyxZ/2Rmqu/JlvPkOTHqH2tCMT/N7o44SIiErDog9+Dx8+jNOnT+PKlSu4cuUKTp8+PacX3lTRaFSmPqxZswZWq9Wwd0lYv369DAREKoJIH1B5vd6sXtx169bJYZHMJ6m0vaFmelFzMepd9WS+p/snf/InMlgXOZciNcIMbbA4n4GJ6H2ci0QigUQiIfNxtX8iuFSJ3sxCRPm0earzsb/ETZQ26FVfPCtEpLGI3Foz+cL5TE9PI5VKydQZ9a/Y8gnpdBqTk5PyeBgcHDSVD01ERLQQFn3wi0wAvHnzZmzevHleA19oHq1rxWKxnMGdCCC1qQgiT1jL4XBg06ZNsFgsSKVSeO6554BM7uu2bdt0087FxYsXZfmNln3gwAG43W75yDqdTsvH2g0NDXl79LT5rM3NzXIbxaN90YtnlKpRjEQikZXaAM2PjaiP61UXL140/LGSfETqgNE86rBc5ZuLmpoaxOPxOQWVgsitNcqbLcbk5CSQac+zodabGJYrhQH8QRkiIroJlkTwu9BE6gMywWGulAdoAj/tC1xGj7/FS2jI5M5+4xvfkPPW1tYWlatZiDYfV308f8899wCax/HavOB8aQHIBPoilUAEKCJnWRu0zPVrD8ePH0cymZRfyxD27NkDm82Go0eP6qZXjY6OYmZmBm1tbbr5vV4v9u7dq5tWiMfjOHv2rO6rGch87UANxsRNzs6dO3XBpc/ny/tiWj5DQ0PYvXu3OtgUt9uNAwcOyP+LfTHXHnnx8pn6BQiHw4HHH3+8YGDtdDp18/n9fjidTpnqI3rbtUGy9jghIiK6ERj8KqkP+VIeAKCnp0fXU5xIJPD000/rHqFrvzebSCQwOjoqgy1kAlA1UJsLkT6h9mADwPj4OCKRSNZXDFKpFL761a/mTXt47rnndOMTmu+xanvMzXztIR+Rwyo+9yUCd5vNht27d+ft9UWe+dva2vLmhweDQZkyIOZxuVy6L2ogU78iUNXmFTc1NWW9HGaW9oUvo79CKQz33HOPnLavrw/JZHJeUgl6enrkZ9y0y8/3NEQYGRlBU1OTnM/tdqO/v1/mMEciEZw4cQK1tbVyGmTSh4iIiG6UJfEjF3TjaAP3Ql8dICIiIlpq2PNLRERERCWDwS8RERERlQwGv0RERERUMpjzS0REREQlgz2/RERERFQyGPwSERERUclg8EtEREREJYPBLxERERGVDAa/RERERFQyGPwSERERUclg8EtEREREJYPBLxERERGVDAa/RERERFQyGPxSyQoEAjh27BgcDgcAwO/3Y2BgAG63W510VhwOB44dO4ZAIKCOWjA+nw+hUAihUAh+v18dvagthrIXUwYx7dDQELxerzqaiIgWqZILfn0+X96LVaHxRF6vF0NDQ/D5fOooKiEulwsAYLFYUF9fr44mIqJFquSCX7qx3G43BgYGlmygGAgEbmjPbS5erxcDAwO8KctDtDWj/SVuWAr15hYjGo0CANLpNM6dO6eOvqmK3V6/38+bfiIqGQx+iYokgoRgMKiOopvE6/XC7/fDarWqo+Dz+dDe3g6LxaKOmpNgMAiPxyMDzcWi2O0NBAJobGxUBxMR3bIY/BIRERFRyVh21113XVcHLjY7duzA2rVrAQBnzpzB4cOH1UlM8/l82LhxI44cOWLYW5NrvN/v1/WOhMNh9PT0yP/7fD60tLTI/wPA4OCg7B10u93o6urCyMgIqqur8y4rl0JlEI97o9EoWlpakEqlcPDgQUQiETkN8pQlnU5nbTdMrFcsT9vrNjg4CJfLBafTKYcBQCwWQ2dnJ2Awn1per9eLtrY2nDhxAs3NzXJZ6nRG1GVDWTcy9WWz2bBv3z7E43H4/X7U1dXh4MGDaGhoyNqfYr01NTXYvn07Tp06pev9VespGo2iuroayWRSt14j6ryijh0OB/bv3w+73a6bXt0HgrYdimm8Xi+2b98uewJFuzSqI7Vu1eUByGovk5OTuuXk2seJRAKjo6P4+Mc/LsuinVZdl3b71PpJJBJyvwUCgax2BgCTk5NYvnx5Vt3BYPmCWgZothfKMa0tkxiuDtMeA+rxZbRvRbnU7c213ueeew733nsvrFYrvvOd76Curs709qrtQhDlrK+vN1xPvvajLaeoS+0wIqLFYNH3/O7YsQMbNmzAypUrsXLlSmzYsAE7duxQJ1tQgUAAdXV16O7uhsfjQX9/P9xut8ynczgccLlccrzH40E4HMbGjRuzcuhEEC+mGxwcRGNjY8HcvEJlEKqqqrB69Wp4PB60trbmDRDFRV6UZWJiAm1tbbqvHRRar7gAjo+P67YJADo7O9Hd3Y1UKoXBwUF4PB4Z6IjH1Nr5pqam0NXVpVu/xWJBe3s7otEoPB4POjo6kEwmsXPnTvmVBiPr16/HyMiIXHZ/fz9qa2uz6isX8Ug7FoshFosVrE+1njo6OlBdXW0YiKjUebV1HI/HsXXrVvT39yOVSqG/vx8ejycrkMnF4XBg06ZNWYGvz+dDb29vVpqA1WpFb2+vYY52Y2OjLiCzWCxoa2uDX0k3cDqdhvPb7XY88MADumDL6XQa5ugK4osZ2vUis6xDhw7p2sp8U7cXmWPGaNuMtLS06IJyi8WCTZs2weFwGAa+yKwzFAoZrteo7a5ZsyZrHy4EdT252k+uchIRLSaLPvgVwWKhYcUQAZX4pJH2T+3t83q9qK2txcjIiAx8hoaGEIlEUFdXB7fbjXg8js7OTl1gNDw8jHQ6jcrKSs3SgJdfflkXuASDQYTDYbksI2bKoPXMM8/o/p9LLBbTlWV0dBQWiwUNDQ2AyfXW1NQAgO6Fn2AwWLCnp7m5GTMzMzh+/LgcdvToUSATuGqFw2G5vHg8jrNnz6K8vFy+bW+kp6dHV4ahoSFMTExkBRvzwev1oqqqCidOnJD1FI/H8dRTTyGVSqmT65ip47nYsmWL3GZRj263G+vWrQMyvXwioBY3KgCwbt26rHWnUil0d3frprNarZiYmNDd9EDzJQRVOBzOWldtbW3WTaIgym9UTqvVivXr16OzsxP9/f1Ip9NApl17PB489NBD2Lp1q65cYv1mbh7E9qrb1tTUlPfGS0gkEujo6NBtq7bdXr16VW6TJ3PDLGjXHYvFAMCwPWin++IXv1jU9orcdbF8UcdGOcza9YyNjcn2I+paW35RTnEDWehcQER0oy364HchaC+k6p/2wgEA9fX1mJmZwejoqG74xYsXYbFYZPAHzRvWoVBI9opUV1fr5hNviGsZLUurmDIkk0lcunRJN10ualkmJyeRTqdlmc2sd3JyEgCyeozzcbvdqKqqwtmzZxGPx+XwS5cuIZlM6gJUozfpp6enASDrxkIleg3FjY3T6YTNZjMVuBSjvr4eyWQyqz7F9uRjpo5na9WqVairqwMygZi40WhoaJA9dpFIRAY6kUgE4+PjQCaoFTdBwvj4OCKRCCKRCKampoDM/hFlHxsbyxvsa8ugXZfFYjHclw6HQ/acam9YtT2OC3EzI4jtRebGMJFIAABsNhsqKiqUqbOJ9m20rfF4HA899JAuyDx37pwM4LXrFu3KqD1op1tI2vVo24/T6ZTHl+itNionEdFisuiD3zNnzqiDDIctFLvdDrvdjr6+vpw9xO7MJ5a2b9+OI0eOwKP0bM2VmTIIyWRSF1DOhZn1RiIR7N69G8lkEr29vQiFQgUfC9fU1MBisaClpUW33L6+vnkLZgKBAPr6+nQ9U6KHa77Npcxm6ni2Vq9eLYOUWCw2b+3CjIW4yTByo9azEHyaH9QIhUK6LzSI9AdtWzC6Sbh48aLu/wulmPUYlZOIaDFZ9MHv4cOHcfr0aVy5cgVXrlzB6dOn5/TCW7ESiYR8fKn2Eoue3m3btiGZTGLXrl1ZjwvNSqfTshdVZaYMC8HsekVeqifz6LNQ3p/oYRZ5wOpfoZfDCvH5fKitrUV/f7/h4975JnoEZ8NsHc9GNBqVZXO73TlTC24WcdOQTqdlb34u2sfu2r+tW7fekKC+oqICNpsNKPLpSi5GL8guRSKtQv1jqgMRLWaLPvhFJgDevHkzNm/efEMDX2R6PArllxrRPhrUMlqOy+XKe0GdbRnmajbr7enpQSwWy9sbKtIBilnuXIlUi4WQq55cLhfKy8t1w1S55p0Pr776Kk6ePIl0Og2L5mUrbXqCNo/U7XbLNIlUKoWxsTHd8ubKbrejubkZ0OQ6I8+NXzwel731VqsV27Zt040/cOCAYapNvt7gfO1Spa2b9evXy+N5Pp6uiP2tvfExyltW/4oNKovZXrM9ttr2o95Ueb1e7N27VzM1EdHisySC35tpdHQUMzMzWTmt2pN8IpHQBTDaF4pU6pvwfr8fTqczK/9Vy0wZFoKZ9aplEEGm6HE0CnTFS2tOpzOrhzhXQFMM0Yuo/cnZbdu2Gd6MFJJIJFBVVZW3TEb1pH5lIRejeWFQryI4LPZndMWLfsgEQnv27EEkEsHIyAig+bpDSMml1b6AN59Eqov2EX++dQ0PD8tAS5tfGgqFcM8998jpxNMEZLazr69PfkVienpajhPLUNudEW3diHzWVColX8ycC3F8aFNetHWibqvZMmMW26t9ctHS0iJfhMtFzWHWvjzc3t6OFStWAJq0jkJpUERENxqD3wLEI/2pqSl5IQyFQmhra5O5xz09PZiYmJAXga6uLnzta18zzPkdGRlBU1OTXI7b7UZ/f3/eHh0zZVgIZtd73333yXG9vb0YHx+X6QbaQDcUCsmAJBgMyk96iXlDoRBee+21nIGQWUNDQzh16pQubzIajc4q53d4eBgA0Nvbi4GBAcMgOB6PY9++fbq85y9/+cu6l6RyMVvHIuAQ25QvmFEdPXpUF0D6/X4Eg0HDvHSRXpCvPc5WIpHIeimw0DdgI5EIWltbDfed9iWsSCSCEydOyKBPS7SHYmnTRmDwDeS5EE9IFkKx2zubsvT09Oh6qoVUKiWPGSKixWpJ/MjFrcCt+WGJfBd7oluJaPfWzI9ciB+mICIiulnY80tEREREJYPBLxERERGVDAa/RERERFQymPNLRERERCWDPb9EREREVDIY/BIRERFRyWDwS0REREQlg8EvEREREZUMBr9EREREVDIY/BIRERFRyWDwS0REREQlg8EvEREREZUMBr9EREREVDIY/JYAr9eLoaEh+Hw+AIDb7cbAwAD8fr86KS0An8+HUCiEUCgk90E+6v6i/LxeLwYGBuD1etVRN9xiKIvP58PQ0NBNLQMVJo7zUChk6lxsdN4OBAI4duwYHA6HbtqFUGx5aWkR7atUrjsMfm8B4qR0o06CxTI6aZulPeEGAgF19KLn8/mwceNG9Pf3w+PxIBgMqpNQifH7/RgYGIDb7VZH3RJuZEC2VHm9Xmzfvh2nTp2Cx+NBT0+POsmistTKS1QIg99bQH19PdLpNGw2G1wulzp6Sfvwhz+MI0eOoKOjA8gE0kuJy+XCzMwMotGoOqoofr9/UQcUc+nxzDXvYt/mW83Nqu+btd6bSZyzx8bG1FGL0lIr71zdSm0y1/m11DH4XeIcDgecTieef/55JJNJ1NfXq5PcdJFIBK2trbPqLXj++eexfft29PX1IZFIIBKJqJMQLSk9PT1obW29ZdtyZ2cntm7ding8ro4iIloUGPzeQO94xzvQ2tqK1tZWvOMd71BHz0pzczNsNhu+//3vIxaLwel03hJ3q4LIXeSjNiIiosXN5/MtiRTFZXfdddd1dSDNv9bWVmzevBlnzpwBAKxduxbPPvssBgYG1EmLIhpZZ2enLi9Lm1uqDne73ejq6sL4+LguoBTTWSwWAEAikcC+ffvy9uCI9Y+OjurmDYfDctna9R0/fhz79+9HMplEZ2enblkiP/bIkSMYGhqC3+9HY2OjHJ9Op+U4rUAgAKfTKf8/ODgot9/r9aKtrQ0nT55Ec3Mz7Ha7rmxG5mN5al0CwG9/+1tcv34dr7zySta2a/fR9PR01r+1y8lVDw6HI2fdBgIB2Gw2uT/9fj+cTieOHz+Ohx9+GFarFQAQi8V08xaaTqzTbrfLeaDZ/2Lfi/nMzPurX/0Kb3/7201tMzT75MSJE3K8z+dDS0uLbMMAstaltu9C2yoYbZNoI2bKsmXLFtTV1eHgwYO63t987S4XtSypVAovvPAC7rvvvqz6Uo8nsY+M2mq++obBsrR1qbY1o/0cDodx7ty5guudTZ1o5Vq39ngV+0dQywDNeS4ajcppxXSTk5O6faC2Fy11fyGzz1555RWUlZVlnW+1587h4eGs87Za10brSKVSWW0t3/7TUpcFzfK2bdsGaOpEDL906VJWnedaPgqct9Rrgloeddu0x19zc7NsO+p0udpFvjYp9vPIyAhcLhecTqduX6t1qrYzldgW7fKgqavm5mZduzRq+/nartE2Ik+5tOWprq6W22J0PCDHur///e/j3nvvxenTp7FmzRrDfape6/JdT+d6/OfDnt8b4B3veAc2b96Mz3zmMwgGgwgGg/jMZz6DzZs3z6kH2O12o6qqSuaTRqNRzMzMzCrv1+fzob29Xb7QIHJs9+/fX7An2el0YtOmTdi1axc8Hg8GBwfR2Nho+NZoPB5HLBZDVVVVVv6uNj/W7XbDbrejo6MDHo8HHo8HExMTaGtrk/M5HA4cO3YMNptNTjc4OIiWlpasdW/YsAEnT57M24M8n8sTPdaxWAyJRAIdHR345Cc/if/+7/823Pbm5mbMzMxgdHRUN1wsJxwOy+V4My8BzpXdbsfDDz+MgwcPwuPxoL+/H7W1tVkvJuabLh6PY+vWrejv70cqlZIv9ok6Wb9+PUZGRuQ+NDPvjh075rTN4qQcDofl4/fm5mbEYjFZju7ubthsNuzZs0c3b75thRKMiGUNDg7qlqFlVBZVMe1Oy+v1wu/368oyMjKCNWvWqJMiEAigrq4O3d3dcrvcbjf8fn/Rbczv9+uW1dHRgYsXL6qTAUpgo20Dr776at71zrZOtPKtWwgEAroXUj0eDyKRCNrb27PW43Q64XK55DbPzMygra0NXV1dOHHihGF7UYkUsHA4jFQqhe7ubrS2tuKHP/whysvLs87d69evBwAMDw/rhudi1CampqbQ1dUlzznF7L9c5RVBZFVVFVavXg2PxyOHmz3WBLPXBDPbBgAWiwXt7e2IRqNy+5LJJHbu3AmHw5G3XeRrk8LatWvlskVgl+/4KqSlpUUur7+/H+Xl5XjiiSfQ1NQk2344HMbGjRvh1eTtFmq7uc6vRtcrLRHQimWq113kWfeaNWswMjKCY8eO5dynRtc69Xo6H8d/IQx+b4CGhgacOXMGiURCDkskEjhz5gwaGhp00xZDzCteQsh3EsnH4XCgqakJsVhM3lXF43GcPHkS5eXlaG5uVmfRSaVSeOqpp+SFfXR0FIlEIutELpw7dw4Wi0W37SKQP3v2LOLxOCKRCDo7O3XBgjhYampqgMxBVF5ejpMnT8rpgsEgYrEYmpqaZNBusVhw/vz5nBdzYb6XZ0RcxMRFDZptj8VihsHRQkmn0zhx4oS8kA0NDWFiYiIrdcbsdEZ6enp0d+piXrU3Yr5og03tST4YDOr+H4lEMD4+DpvNVtS2irZ37tw5OY+4oVXlKovKbLtTNTc3Y2JiIms7w+Gwbjqv14va2lqMjIzotisSiaCurq6ocwUyNwhTU1NyWfF4HI8++qhh262oqIDNZtO98Dk0NIR/+qd/0k2nmm2daBVat9frRVVVVVavVk9Pj+F6UqkUjh49CmS2+ezZs7BarRgfH5fzq+3FrNHRUczMzOjOtY7M+xzaui5EBBbHjx+Xw0SZxTmnmP1nxjPPPKP7v9ljTcvMNcHMtgnhcFh3LTt79qy8uSjULgp5+eWXdcf7XI8v7XVXtB+r1apr+8PDw0in0/KdnmLbbjFisZhu/42Ojur2jdG63W436urqAECu2+y1zuh6Oh/HfyEMfpcoEbCqJ0ajk0ghLpcLNpstq9dxcnIS6XQa1dXVuuEqtQzxeBzJZDLnyU4c4NpGrAbygk/zjdz29nZYrVZUVlYCmXJPTEzoDhpkbixsNhsqKirksFw9G1rzvTwjkUgEU1NTuouj2HazvTvzxegrFEbbana6XByZu3ixH51OZ862MRf33HMPNm7cmDfYDAQCshyNjY1Z21BoWycnJwEgqydEZaYsQjHtThAXEbWsMGib9fX1WT0tyExnsVhkQG9WIpGA0+k01at16dIlJJPJrF6rQmZTJ6pC666vr0cymTSsw2g0mtUTq57npqenkU6ns+p7NuIGHRe5zsu5qMGiIOpB3HAWs/8KSSaTuHTpkjoYMHGsaRW6JpjdNmRuYLU3p8jsKwCorKws2C4K0XZiYR6OL7X9JRIJpNNpea4xUmzbLYa6TDUOUNft1qRLDA4OynUXc61Tj6H5OP4LYfB7A4yNjWHt2rW6A9Rut2Pt2rVZwZ5ZLpcL5eXlcDqd8gQjAkSLxVLU3VFlZSWsViva29t1y+rt7dXles0n7QFqFMiLR03r1q3TPUpKp9NAJqCy2WxZ2y9OtFrpdFqe/HKZ7+Xlo56cXC5X1oX1VhEIBNDX14eY5jFoLBZTJ5szi8WCNWvWZPUMCX6/H6FQCNA8zlN7SM2IRCLYvXs3kskkent7ETL44ZJCZdEqpt1p1dTU6PIS87Hb7bDb7ejr69MtX5uvV4yenh6Z2hQKhfJ+EiqeefQ6MTEhzy+Fgq7Z1omq0LoX6unDbKkdF2qQUYhoEy0tLbo66+vr021rMfuvkGQymdVjPNtjLd81wey2mVGoXRSiBmrzfXyZUew2zyftuh0OB3bu3Inx8XHDp19mrnXq9XS+jv9CGPzeABcuXMCzzz6LL33pS/D5fPD5fPjSl76EZ599FhcuXFAnN0V8d1EEhtq/cDhc1J3f9PS0LidI/SvUczUbY2Nj8jGO2sPhcDiwadMmTExM5PwklOhd1gZV2r9c8+Uy38vLRzzirK+vz9uDVyyxDYuFz+dDbW0t+vv7F6QNaaXTaQwODsJms2XlqXu9XrjdbgwODma9fDEb4uIpjrWWlhbdxTNfWVSzbXeiN8aMRCKBRCZ/UV2+ms9oVjAYhEeTz3no0KG8PeGdnZ3waN4HEC+QGZltneSSa91qD97NJno/RfDnzLxQpQaXuYg2MTg4mFVnHk1+Kmax/8yay7GW75pQzLaZlatdFGshjq9CbmbbFeuuqKjA/v37s9IktGZzrZvv4z8XBr83yMDAAD7/+c/jd7/7HX73u9/h85///Ky/9CBOjOodlKDmBxUiHq+YnX4+RDJ5YE6nE+9///tN9XDU19frersSiUTR+c35zPfychGPOJ1OJzZv3oxkMpn1yGwubEpKgTjpLAYLWZbp6WkcPHjQVNApjqG5Ejl2ak9MMWWZTbsTj26NbnDVYRcvXizqZrgYkUgEJ06cADS5+PmInGS1japmUyeFqOvOVy+uefpxmmJFo1FUVVXhE5/4BGw2W9bj4XzytYlcit1/s2H2WMt3TZjNtpmltoti5WtHCyXfOhe67Yp1d3V1IZlM6gJfdd2zvdYtxPGvYvB7A124cAEDAwMYGBiYdY8vMsngdrs9Z+OOGOTa5CNOOuoXGhwOBx5//HFTy5iNc+fOyQNYm8sl7vy0jV/0KGiJC4N4i1cQvevFmu/l5XPu3DnYbDa8613vMtW7k+9kpxWNRmG327FlyxY5bNu2bQuWviIY3UCJR1naYUZlMZoXRWyzlriYl5eXy6BT9Bppl7Nly5asgNUMr9eLvXv3yv+LYN6oJ8aoLEZm0+7imZd4nErups/nywo0RO+LmqesbovZ+j5w4IBuOWK/GeUout1uHDhwQP5fBELax+VG6zVTJ94Cv1xVaN3BYBATExPYvn27bhl+vx+1tbW6l21uFJEG19DQkLNzI5dcbQLKPitm/xVrrsdavmuCmW0zo1C7QI42mYvZ42s+FdN2c51fZ0tsLzQvHCLHujGLax1MHv++zPtAuc6RhTD4XYJcLhdSqVTefGERBBX6UoMg8sC0OVUiV9NMY52NaObTbEbb8uSTTyKpyavctGkTvvnNb+oe9UYy+ZcAdPlWTU1Npu4uVfO9vHyGhoYwNTUFi8WS9XKGEXHCaW9vx1DmczxGRC+GyOcLhUKIRqMLkmerpb2BCmVy6IaGhnDq1KmCZTGaF0Vss2poaAhHjhxBeXk5vvzlL6OmpgYnTpxAbW2tLAcyb4TPxn333SeX09vbq/vuqkoti9E2zLbdBYNBXe5mKBSCy+XCoPLptXgmTWNqakoeT6FQCG1tbfK74yiivletWqVbjtE3i7XuueceOW1fXx+Syrc/jdZrpk7M5MQWWndnZycimc9Dabenp6dnQR5XFyKOhVWrVuXdrlyCwaD8zJbYnlAohNdee03un2L3XzHEDd9sj7V81wQz22ZWoXZh1CZzMXt8zTezbTfX+XW2tmzZgmQyifHx8ax2pK4bs7jWYQ7nxGLwRy6IbhKRYzabfDVauvyZH9PI9dF/MicQCCCRSOS88Viq2D5osXK73di5cyeeeuqpom44FuO1jj2/RDeBN/NtyNn07tDSZrfbdY9YqXhut7vonNilwJ35XupCPnEjmq1IJIKtW7cWFfgu1msdg1+im8DoV27o1rdYLwRLzWwuwktBsb/oRrTYLdZrHdMeiG4g8VvliTy/dU+3Hu1v1A/O4+/T063B7/ejsbERqVRq3vJviW6mxX6tY/BLRERERCWDaQ9EREREVDIY/BIRERFRyWDwS0REREQlg8EvEREREZUMBr9EREREVDIY/BIRERFRyWDwS0REREQlg8EvEREREZUMBr9EREREVDIY/BIRERFRyWDwS0REREQl4/8Cof3zCwlLHOUAAAAASUVORK5CYII=;" vertex="1" parent="1">
                    <mxGeometry x="70" y="160" width="443" height="145.57" as="geometry"/>
                </mxCell>
            </root>
        </mxGraphModel>
    </diagram>
</mxfile>